<svg width="17" height="17" viewBox="0 0 17 17" fill="none" xmlns="http://www.w3.org/2000/svg">
<g clip-path="url(#clip0_5105_23)">
<path d="M6.37484 15.5837C6.76604 15.5837 7.08317 15.2665 7.08317 14.8753C7.08317 14.4841 6.76604 14.167 6.37484 14.167C5.98364 14.167 5.6665 14.4841 5.6665 14.8753C5.6665 15.2665 5.98364 15.5837 6.37484 15.5837Z" stroke="black" stroke-linecap="round" stroke-linejoin="round"/>
<path d="M14.1668 15.5837C14.558 15.5837 14.8752 15.2665 14.8752 14.8753C14.8752 14.4841 14.558 14.167 14.1668 14.167C13.7756 14.167 13.4585 14.4841 13.4585 14.8753C13.4585 15.2665 13.7756 15.5837 14.1668 15.5837Z" stroke="black" stroke-linecap="round" stroke-linejoin="round"/>
<path d="M0.708496 0.708008H3.54183L5.44016 10.1926C5.50494 10.5187 5.68235 10.8116 5.94134 11.0201C6.20033 11.2286 6.52441 11.3394 6.85683 11.333H13.7418C14.0743 11.3394 14.3983 11.2286 14.6573 11.0201C14.9163 10.8116 15.0937 10.5187 15.1585 10.1926L16.2918 4.24967H4.25016" stroke="black" stroke-linecap="round" stroke-linejoin="round"/>
</g>
<defs>
<clipPath id="clip0_5105_23">
<rect width="17" height="17" fill="white"/>
</clipPath>
</defs>
</svg>
