<svg width="15" height="15" viewBox="0 0 15 15" fill="none" xmlns="http://www.w3.org/2000/svg">
<g clip-path="url(#clip0_583_21241)">
<path d="M7.28903 0.0611515C7.22164 0.0963078 7.15426 0.163691 7.11911 0.234003C7.06051 0.345331 7.06051 0.400995 7.06051 2.93517V5.52209L3.68258 6.45666C1.82809 6.97229 0.272426 7.40881 0.228481 7.42932C0.187465 7.45275 0.123012 7.50842 0.0878555 7.55822C-0.114293 7.8424 0.0878555 8.23791 0.430629 8.23791C0.51559 8.23791 0.902309 8.14416 1.415 8.00061C1.88082 7.86877 2.27047 7.7633 2.28512 7.7633C2.29977 7.7633 1.79586 8.62463 1.16305 9.67346L0.0146134 11.5865L0.017543 11.8649C0.0204727 12.2311 0.0907852 12.5709 0.246059 12.9547C0.940395 14.6744 2.95309 15.4742 4.61715 14.6949C5.32907 14.358 5.83004 13.8746 6.16696 13.1979C6.36325 12.8024 6.46286 12.4625 6.5068 12.0319C6.5361 11.7477 6.53317 11.6891 6.49508 11.5924C6.46871 11.5338 5.88571 10.5465 5.20016 9.401C4.51168 8.25549 3.95797 7.31213 3.96676 7.30334C3.98727 7.28283 10.7607 5.39611 10.7754 5.4049C10.7783 5.40783 10.2773 6.25451 9.65914 7.28576C9.03805 8.31994 8.51657 9.21057 8.49606 9.26916C8.44918 9.41271 8.50485 9.94592 8.60153 10.2799C8.87985 11.2321 9.61813 12.0524 10.5205 12.4098C12.4804 13.1803 14.6308 11.9498 14.9589 9.87268C15.0498 9.28967 15.1582 9.52404 13.7021 7.10119C12.999 5.92639 12.4336 4.95959 12.4453 4.94787C12.457 4.93615 12.9726 4.78674 13.5937 4.61682C14.2148 4.44396 14.7539 4.2799 14.792 4.25354C15.1318 4.00451 15.0175 3.50646 14.6103 3.46545C14.5136 3.45666 13.7841 3.64709 11.2646 4.35021C9.49215 4.8424 8.01852 5.25256 7.99215 5.26135C7.94235 5.276 7.93942 5.14709 7.93942 2.81213C7.93942 0.400995 7.93942 0.345331 7.88082 0.234003C7.77243 0.0201359 7.50875 -0.056036 7.28903 0.0611515ZM12.7617 7.24182L13.7695 8.92053L12.7617 8.92932C12.205 8.93225 11.291 8.93225 10.7285 8.92932L9.70309 8.92053L10.7168 7.2301C11.2763 6.30139 11.7363 5.54553 11.7451 5.55139C11.7509 5.55725 12.208 6.31896 12.7617 7.24182ZM4.30368 9.61779C4.85446 10.5348 5.3027 11.2877 5.3027 11.2965C5.3027 11.3024 4.38571 11.3082 3.26657 11.3082C2.14743 11.3082 1.23043 11.2994 1.23043 11.2906C1.23043 11.2731 3.18454 8.00646 3.23141 7.94494C3.24899 7.92443 3.27243 7.91857 3.28414 7.93029C3.29586 7.94201 3.75582 8.70373 4.30368 9.61779ZM14.0625 9.86682C14.0625 10.0367 13.8808 10.4586 13.6816 10.7516C13.5556 10.9332 13.2627 11.2233 13.0664 11.358C11.9882 12.0904 10.4853 11.7916 9.75875 10.7047C9.6152 10.4908 9.457 10.1276 9.41891 9.92248L9.3984 9.81408H11.7304C13.9658 9.81408 14.0625 9.81701 14.0625 9.86682ZM5.59567 12.2135C5.59567 12.2311 5.56344 12.3453 5.52243 12.4713C5.22946 13.3912 4.38571 14.0446 3.41305 14.1119C2.36715 14.1793 1.3652 13.5201 1.02243 12.5299C0.975551 12.3981 0.937465 12.2662 0.937465 12.2369C0.937465 12.1901 1.06637 12.1871 3.26657 12.1871C4.71383 12.1871 5.59567 12.1988 5.59567 12.2135Z" fill="black"/>
</g>
<defs>
<clipPath id="clip0_583_21241">
<rect width="15" height="15" fill="white"/>
</clipPath>
</defs>
</svg>
