<svg width="22" height="17" viewBox="0 0 22 17" fill="none" xmlns="http://www.w3.org/2000/svg">
<g clip-path="url(#clip0_583_18993)">
<path d="M16.4992 12.8138V15.0218C16.5001 15.2267 16.458 15.4296 16.3757 15.6174C16.2934 15.8052 16.1728 15.9738 16.0214 16.1124C15.8701 16.2509 15.6914 16.3564 15.4969 16.4221C15.3023 16.4878 15.0962 16.5121 14.8916 16.4937C12.6224 16.2476 10.4427 15.4737 8.52754 14.2343C6.74577 13.1043 5.23513 11.5967 4.10292 9.81841C2.85664 7.8984 2.08105 5.7124 1.83899 3.4375C1.82057 3.23398 1.8448 3.02886 1.91016 2.8352C1.97551 2.64154 2.08056 2.46358 2.2186 2.31266C2.35664 2.16173 2.52466 2.04115 2.71196 1.95858C2.89926 1.87601 3.10173 1.83327 3.30649 1.83308H5.5188C5.87668 1.82956 6.22363 1.95604 6.49499 2.18895C6.76634 2.42185 6.94358 2.74528 6.99367 3.09896C7.08705 3.80554 7.26022 4.49932 7.50988 5.16705C7.60909 5.43047 7.63057 5.71676 7.57175 5.99199C7.51294 6.26721 7.3763 6.51985 7.17803 6.71995L6.24149 7.65464C7.29127 9.49719 8.8199 11.0228 10.6661 12.0705L11.6026 11.1358C11.8031 10.9379 12.0563 10.8016 12.3321 10.7429C12.6078 10.6842 12.8947 10.7056 13.1586 10.8046C13.8277 11.0538 14.5228 11.2266 15.2308 11.3198C15.5891 11.3702 15.9162 11.5503 16.1501 11.8258C16.3839 12.1012 16.5082 12.4529 16.4992 12.8138Z" stroke="#1570D0" stroke-width="2" stroke-linecap="round" stroke-linejoin="round"/>
</g>
<defs>
<clipPath id="clip0_583_18993">
<rect width="22" height="17" fill="white"/>
</clipPath>
</defs>
</svg>
