<svg width="41" height="41" viewBox="0 0 41 41" fill="none" xmlns="http://www.w3.org/2000/svg">
<g id="delivery-man 1">
<g id="Vector" opacity="0.997">
<path fill-rule="evenodd" clip-rule="evenodd" d="M18.2179 1.24133C19.713 1.22799 21.2077 1.24134 22.7023 1.28137C25.3048 1.85526 26.893 3.44348 27.4669 6.04602C27.5203 6.8468 27.5203 7.64758 27.4669 8.44836C22.7959 6.52659 18.1247 6.52659 13.4532 8.44836C13.029 5.90245 13.8164 3.83376 15.8155 2.24231C16.5596 1.74949 17.3604 1.41583 18.2179 1.24133Z" fill="#1570D0"/>
<path fill-rule="evenodd" clip-rule="evenodd" d="M18.7784 8.2882C21.7574 8.03684 24.6136 8.50393 27.3468 9.68957C27.5013 9.95031 27.5413 10.2306 27.4669 10.5304C27.205 11.3358 26.7379 11.9897 26.0655 12.4923C25.888 12.5944 25.7011 12.6745 25.505 12.7325C22.1417 12.786 18.7784 12.786 15.4152 12.7325C14.724 12.4953 14.2035 12.0548 13.8536 11.4113C13.6982 11.1271 13.5648 10.8336 13.4532 10.5304C13.3878 10.253 13.4146 9.98602 13.5333 9.72961C15.205 8.94148 16.9535 8.46101 18.7784 8.2882Z" fill="#1570D0"/>
<path fill-rule="evenodd" clip-rule="evenodd" d="M12.3722 11.171C12.6494 11.7563 13.0098 12.2901 13.4532 12.7726C13.5199 13.4149 13.5065 14.0555 13.4132 14.6945C12.3508 13.9248 11.937 12.8838 12.172 11.5714C12.2398 11.4358 12.3065 11.3023 12.3722 11.171Z" fill="#1570D0"/>
<path fill-rule="evenodd" clip-rule="evenodd" d="M28.4679 11.171C28.5989 11.271 28.6924 11.4045 28.7482 11.5714C28.9831 12.8838 28.5694 13.9248 27.507 14.6945C27.4137 14.0555 27.4003 13.4149 27.4669 12.7726C27.9158 12.3104 28.2494 11.7766 28.4679 11.171Z" fill="#1570D0"/>
<path fill-rule="evenodd" clip-rule="evenodd" d="M14.6945 13.7335C15.1025 13.9022 15.5296 13.9956 15.9757 14.0138C18.9653 14.0672 21.9549 14.0672 24.9445 14.0138C25.3659 14.0047 25.7663 13.9112 26.1456 13.7335C26.4836 16.7017 25.3091 18.8238 22.6222 20.0997C19.8359 21.0017 17.527 20.3211 15.6954 18.0577C14.837 16.7424 14.5033 15.301 14.6945 13.7335Z" fill="#1570D0"/>
<path fill-rule="evenodd" clip-rule="evenodd" d="M17.6573 21.2609C17.6907 21.2109 17.7442 21.1842 17.8175 21.1808C19.006 21.6323 20.2339 21.779 21.5011 21.6212C22.0961 21.4856 22.6833 21.3521 23.2628 21.2208C22.3402 21.9967 21.406 22.7574 20.4601 23.503C19.5228 22.7519 18.5886 22.0045 17.6573 21.2609Z" fill="#1570D0"/>
<path fill-rule="evenodd" clip-rule="evenodd" d="M13.6534 21.7413C13.9159 21.7186 14.1694 21.7453 14.4142 21.8214C15.2193 23.4451 16.0334 25.0599 16.8566 26.6661C17.1903 26.8332 17.5106 26.8065 17.8175 26.5861C18.675 26.0239 19.5558 25.5034 20.4601 25.0245C21.4447 25.5972 22.4323 26.171 23.423 26.7462C23.6474 26.8067 23.861 26.78 24.0636 26.6661C24.8923 25.0353 25.7198 23.4071 26.546 21.7814C29.9351 21.9613 32.3775 23.5762 33.8732 26.6261C34.1991 27.3692 34.4127 28.1433 34.5138 28.9484C34.5538 30.8167 34.5672 32.6851 34.5538 34.5538C33.059 34.5538 31.5643 34.5538 30.0695 34.5538C30.0828 33.0588 30.0695 31.564 30.0294 30.0695C29.8826 28.9617 29.2553 28.3344 28.1476 28.1876C23.0226 28.1342 17.8976 28.1342 12.7726 28.1876C11.6649 28.3344 11.0375 28.9617 10.8907 30.0695C10.8507 31.564 10.8373 33.0588 10.8507 34.5538C9.35589 34.5538 7.86113 34.5538 6.36633 34.5538C6.35299 32.6585 6.36633 30.7633 6.40637 28.8683C6.96095 25.7166 8.70934 23.5144 11.6515 22.2618C12.3141 22.0269 12.9814 21.8534 13.6534 21.7413Z" fill="#1570D0"/>
<path fill-rule="evenodd" clip-rule="evenodd" d="M15.6554 21.8214C15.9337 21.7299 16.2273 21.7165 16.5363 21.7814C17.511 22.5828 18.4719 23.3969 19.4191 24.2238C18.8103 24.6282 18.1831 25.002 17.5372 25.3448C16.8883 24.1804 16.261 23.0059 15.6554 21.8214Z" fill="#1570D0"/>
<path fill-rule="evenodd" clip-rule="evenodd" d="M24.3839 21.7413C24.656 21.7157 24.923 21.7424 25.1847 21.8214C24.6456 23.0331 24.045 24.2077 23.3829 25.3448C22.7371 25.002 22.1098 24.6282 21.5011 24.2238C22.4636 23.3945 23.4246 22.567 24.3839 21.7413Z" fill="#1570D0"/>
<path fill-rule="evenodd" clip-rule="evenodd" d="M12.6925 29.3487C13.8065 29.3229 14.9143 29.3496 16.0157 29.4288C16.0424 31.0037 16.0692 32.5785 16.0958 34.1534C16.5337 34.6715 17.0008 35.1653 17.4972 35.6349C17.7641 35.795 18.0311 35.795 18.298 35.6349C18.5794 35.34 18.8731 35.0598 19.1788 34.7941C19.514 35.1159 19.8609 35.4229 20.2198 35.715C20.4443 35.7754 20.6579 35.7488 20.8605 35.6349C21.1419 35.34 21.4356 35.0598 21.7413 34.7941C22.0471 35.0598 22.3407 35.34 22.6222 35.6349C22.8891 35.795 23.1561 35.795 23.423 35.6349C23.9194 35.1653 24.3865 34.6715 24.8243 34.1534C24.851 32.5785 24.8778 31.0037 24.9044 29.4288C26.0061 29.3363 27.1139 29.3229 28.2277 29.3888C28.4674 29.4213 28.6409 29.5414 28.7482 29.7491C28.7882 33.0589 28.8016 36.3688 28.7882 39.6788C23.2361 39.6788 17.684 39.6788 12.132 39.6788C12.1186 36.3688 12.132 33.0589 12.172 29.7491C12.2972 29.5471 12.4707 29.4136 12.6925 29.3487Z" fill="#1570D0"/>
<path fill-rule="evenodd" clip-rule="evenodd" d="M17.257 29.3488C19.3924 29.3488 21.5278 29.3488 23.6632 29.3488C23.6766 30.8171 23.6632 32.2852 23.6232 33.753C23.4351 33.9546 23.2349 34.1414 23.0226 34.3136C22.7168 34.0479 22.4232 33.7676 22.1417 33.4728C21.8748 33.3126 21.6078 33.3126 21.3409 33.4728C21.0595 33.7676 20.7658 34.0479 20.4601 34.3136C20.1543 34.0479 19.8607 33.7676 19.5792 33.4728C19.3123 33.3126 19.0453 33.3126 18.7784 33.4728C18.5115 33.7397 18.2446 34.0067 17.9777 34.2736C17.7153 34.1745 17.4885 34.001 17.297 33.753C17.257 32.2852 17.2436 30.8171 17.257 29.3488Z" fill="#1570D0"/>
<path fill-rule="evenodd" clip-rule="evenodd" d="M6.36633 35.8351C7.86112 35.8351 9.35589 35.8351 10.8507 35.8351C10.8507 37.1163 10.8507 38.3976 10.8507 39.6788C9.40177 39.7167 7.96039 39.6767 6.52649 39.5587C6.47637 39.4987 6.43633 39.4319 6.40637 39.3585C6.36634 38.1843 6.35299 37.0098 6.36633 35.8351Z" fill="#1570D0"/>
<path fill-rule="evenodd" clip-rule="evenodd" d="M30.0695 35.8351C31.5643 35.8351 33.059 35.8351 34.5538 35.8351C34.5672 37.0098 34.5538 38.1843 34.5138 39.3585C34.4838 39.4319 34.4438 39.4987 34.3937 39.5587C32.9598 39.6767 31.5184 39.7167 30.0695 39.6788C30.0695 38.3976 30.0695 37.1163 30.0695 35.8351Z" fill="#1570D0"/>
</g>
</g>
</svg>
