<svg width="17" height="17" viewBox="0 0 17 17" fill="none" xmlns="http://www.w3.org/2000/svg">
<g id="trash-2">
<path id="Vector" d="M2.125 4.25H3.54167H14.875" stroke="black" stroke-linecap="round" stroke-linejoin="round"/>
<path id="Vector_2" d="M13.4587 4.25033V14.167C13.4587 14.5427 13.3094 14.9031 13.0437 15.1687C12.7781 15.4344 12.4177 15.5837 12.042 15.5837H4.95866C4.58294 15.5837 4.2226 15.4344 3.95692 15.1687C3.69125 14.9031 3.54199 14.5427 3.54199 14.167V4.25033M5.66699 4.25033V2.83366C5.66699 2.45794 5.81625 2.0976 6.08192 1.83192C6.3476 1.56625 6.70794 1.41699 7.08366 1.41699H9.91699C10.2927 1.41699 10.6531 1.56625 10.9187 1.83192C11.1844 2.0976 11.3337 2.45794 11.3337 2.83366V4.25033" stroke="black" stroke-linecap="round" stroke-linejoin="round"/>
<path id="Vector_3" d="M7.08301 7.79199V12.042" stroke="black" stroke-linecap="round" stroke-linejoin="round"/>
<path id="Vector_4" d="M9.91699 7.79199V12.042" stroke="black" stroke-linecap="round" stroke-linejoin="round"/>
</g>
</svg>
