<svg width="32" height="32" viewBox="0 0 32 32" fill="none" xmlns="http://www.w3.org/2000/svg">
<path d="M28.7431 7.12302C28.5588 7.22366 27.1402 8.81727 22.2255 14.4648C18.7684 18.4348 15.9257 21.6836 15.8978 21.6947C15.8698 21.7003 14.5015 20.2074 12.854 18.3677C11.2009 16.5281 9.7767 14.9624 9.68734 14.8898C9.48628 14.7276 9.04507 14.6717 8.79934 14.7723C8.38047 14.9457 8.14032 15.4937 8.31345 15.9018C8.35813 16.0081 9.20145 16.9922 10.19 18.0882C11.1729 19.1841 11.9827 20.1011 11.9827 20.1291C11.9827 20.185 10.7094 21.6668 10.6368 21.6947C10.6144 21.7059 9.22379 20.185 7.54273 18.323C5.86167 16.4554 4.40959 14.8842 4.30906 14.8227C4.09683 14.6941 3.71706 14.6829 3.46015 14.8059C3.06362 14.996 2.87373 15.5999 3.09154 15.9857C3.14181 16.0808 4.7391 17.8813 6.63239 19.9893C9.46953 23.143 10.1174 23.8307 10.3073 23.909C10.8602 24.1271 10.9998 24.0376 12.1726 22.6845C12.72 22.0526 13.1835 21.527 13.2114 21.5102C13.2338 21.499 13.7252 22.0135 14.3005 22.6565C15.5403 24.0376 15.68 24.1271 16.2273 23.909C16.4116 23.8307 17.4839 22.6285 23.08 16.2094C26.7325 12.0269 29.7763 8.51533 29.8545 8.40909C30.0388 8.15187 30.05 7.64863 29.8768 7.40819C29.7428 7.22366 29.3351 7 29.1285 7C29.0503 7 28.8771 7.05592 28.7431 7.12302Z" fill="#123E81"/>
<path d="M22.8338 8.07368C22.6422 8.15789 22.6369 8.16315 18.3423 13.0261C16.5808 15.0208 15.1014 16.7418 15.0588 16.8418C14.9524 17.0786 14.995 17.4154 15.1493 17.6312C15.277 17.8102 15.6229 17.9944 15.8252 17.9996C16.219 18.0049 16.2136 18.0102 20.1091 13.5945C22.1686 11.263 23.8822 9.29469 23.9248 9.21575C24.0365 9.01575 24.0206 8.63156 23.8982 8.41577C23.7811 8.21052 23.4032 8 23.1584 8C23.0733 8.00526 22.9243 8.03684 22.8338 8.07368Z" fill="#123E81"/>
</svg>
