<svg width="34" height="34" viewBox="0 0 34 34" fill="none" xmlns="http://www.w3.org/2000/svg">
<rect x="0.5" y="0.5" width="33" height="33" rx="6.5" stroke="#1570D0"/>
<path d="M18 12H20.25C20.4489 12 20.6397 11.921 20.7803 11.7803C20.921 11.6397 21 11.4489 21 11.25V9.75C21 9.55109 20.921 9.36032 20.7803 9.21967C20.6397 9.07902 20.4489 9 20.25 9H18C17.0054 9 16.0516 9.39509 15.3483 10.0983C14.6451 10.8016 14.25 11.7554 14.25 12.75V15H12.75C12.5511 15 12.3603 15.079 12.2197 15.2197C12.079 15.3603 12 15.5511 12 15.75V17.25C12 17.4489 12.079 17.6397 12.2197 17.7803C12.3603 17.921 12.5511 18 12.75 18H14.25V23.25C14.25 23.4489 14.329 23.6397 14.4697 23.7803C14.6103 23.921 14.8011 24 15 24H16.5C16.6989 24 16.8897 23.921 17.0303 23.7803C17.171 23.6397 17.25 23.4489 17.25 23.25V18H18.915C19.0863 18.005 19.2542 17.9511 19.3907 17.8474C19.5271 17.7437 19.6239 17.5964 19.665 17.43L20.04 15.93C20.0678 15.8177 20.0693 15.7005 20.0443 15.5875C20.0192 15.4746 19.9684 15.3689 19.8958 15.2789C19.8232 15.1888 19.7307 15.1168 19.6256 15.0684C19.5205 15.02 19.4056 14.9966 19.29 15H17.25V12.75C17.25 12.5511 17.329 12.3603 17.4697 12.2197C17.6103 12.079 17.8011 12 18 12Z" fill="#1570D0"/>
</svg>
