<svg width="24" height="24" viewBox="0 0 24 24" fill="none" xmlns="http://www.w3.org/2000/svg">
<rect x="0.5" y="0.5" width="23" height="23" rx="6.5" stroke="white" stroke-opacity="0.8"/>
<path d="M13 7H15.25C15.4489 7 15.6397 6.92098 15.7803 6.78033C15.921 6.63968 16 6.44891 16 6.25V4.75C16 4.55109 15.921 4.36032 15.7803 4.21967C15.6397 4.07902 15.4489 4 15.25 4H13C12.0054 4 11.0516 4.39509 10.3483 5.09835C9.64509 5.80161 9.25 6.75544 9.25 7.75V10H7.75C7.55109 10 7.36032 10.079 7.21967 10.2197C7.07902 10.3603 7 10.5511 7 10.75V12.25C7 12.4489 7.07902 12.6397 7.21967 12.7803C7.36032 12.921 7.55109 13 7.75 13H9.25V18.25C9.25 18.4489 9.32902 18.6397 9.46967 18.7803C9.61032 18.921 9.80109 19 10 19H11.5C11.6989 19 11.8897 18.921 12.0303 18.7803C12.171 18.6397 12.25 18.4489 12.25 18.25V13H13.915C14.0863 13.005 14.2542 12.9511 14.3907 12.8474C14.5271 12.7437 14.6239 12.5964 14.665 12.43L15.04 10.93C15.0678 10.8177 15.0693 10.7005 15.0443 10.5875C15.0192 10.4746 14.9684 10.3689 14.8958 10.2789C14.8232 10.1888 14.7307 10.1168 14.6256 10.0684C14.5205 10.02 14.4056 9.99661 14.29 10H12.25V7.75C12.25 7.55109 12.329 7.36032 12.4697 7.21967C12.6103 7.07902 12.8011 7 13 7Z" fill="white"/>
</svg>
