<svg width="15" height="19" viewBox="0 0 15 19" fill="none" xmlns="http://www.w3.org/2000/svg">
<g id="filter 2">
<path id="Vector" d="M1.31049 2.74024C1.1293 2.78833 0.866134 2.92822 0.663368 3.09435C0.206066 3.46157 -0.031213 4.01677 0.00330036 4.64193C0.0378137 5.30205 -0.00101377 5.25396 2.51415 8.05185L4.74025 10.535V12.3143V14.0935L4.85242 14.3165C4.95165 14.5263 5.0897 14.64 6.94479 16.0521C9.09325 17.6827 9.13208 17.7046 9.52466 17.6128C9.8094 17.5516 10.0208 17.3811 10.1502 17.1231L10.2624 16.8914V13.7132V10.535L12.4885 8.05185C14.995 5.25834 14.9562 5.31517 14.995 4.65067C15.0468 3.86814 14.693 3.24298 13.9941 2.86265L13.7353 2.72275L7.5876 2.71401C4.2053 2.71401 1.38383 2.72275 1.31049 2.74024ZM12.9113 4.81242C10.2796 7.73272 8.58418 9.64752 8.51515 9.7743C8.43318 9.92731 8.42887 10.041 8.4073 12.3711L8.38573 14.8061L7.50132 14.1329L6.61692 13.4596L6.59535 11.6978C6.57378 10.041 6.56946 9.92731 6.48749 9.7743C6.41847 9.64752 4.723 7.73272 2.09136 4.81242L1.88428 4.58072H7.50132H13.1184L12.9113 4.81242Z" fill="black"/>
</g>
</svg>
