<svg width="11" height="11" viewBox="0 0 11 11" fill="none" xmlns="http://www.w3.org/2000/svg">
<path d="M0.961028 0.0193272C0.828152 0.0547609 0.635165 0.157842 0.48647 0.280249C0.151115 0.550835 -0.0228895 0.959933 0.00242026 1.42057C0.02773 1.90698 -0.000743428 1.87155 1.84371 3.93315L3.47619 5.76282V7.07387V8.38492L3.55844 8.5492C3.63121 8.70382 3.73245 8.78758 5.09285 9.82804C6.66838 11.0296 6.69686 11.0457 6.98475 10.978C7.19356 10.9329 7.34858 10.8073 7.44349 10.6172L7.52575 10.4465V8.10467V5.76282L9.15823 3.93315C10.9964 1.87477 10.9679 1.91665 10.9964 1.42701C11.0343 0.85041 10.7749 0.389771 10.2624 0.109523L10.0725 0.00644302L5.56424 0C3.08389 0 1.01481 0.00644302 0.961028 0.0193272ZM9.46828 1.5462C7.5384 3.698 6.29506 5.10891 6.24444 5.20232C6.18433 5.31507 6.18117 5.39882 6.16535 7.11575L6.14953 8.90998L5.50097 8.41391L4.85241 7.91784L4.83659 6.61967C4.82077 5.39882 4.8176 5.31507 4.75749 5.20232C4.70687 5.10891 3.46353 3.698 1.53366 1.5462L1.3818 1.37547H5.50097H9.62013L9.46828 1.5462Z" fill="white"/>
</svg>
