<svg width="34" height="34" viewBox="0 0 34 34" fill="none" xmlns="http://www.w3.org/2000/svg">
<rect x="0.5" y="0.5" width="33" height="33" rx="6.5" stroke="#1570D0"/>
<g clip-path="url(#clip0_3268_23673)">
<path fill-rule="evenodd" clip-rule="evenodd" d="M17 9C14.8273 9 14.5549 9.00921 13.7016 9.04814C12.8501 9.08698 12.2686 9.22223 11.7597 9.42001C11.2336 9.62442 10.7875 9.89797 10.3427 10.3427C9.89796 10.7875 9.62442 11.2336 9.42001 11.7597C9.22223 12.2686 9.08698 12.8501 9.04814 13.7016C9.00921 14.5549 9 14.8273 9 17.0001C9 19.1727 9.00921 19.4451 9.04814 20.2984C9.08698 21.1499 9.22223 21.7315 9.42001 22.2403C9.62442 22.7664 9.89796 23.2126 10.3427 23.6573C10.7875 24.102 11.2336 24.3756 11.7597 24.5801C12.2686 24.7778 12.8501 24.913 13.7016 24.9519C14.5549 24.9908 14.8273 25 17 25C19.1727 25 19.4451 24.9908 20.2984 24.9519C21.1499 24.913 21.7314 24.7778 22.2403 24.5801C22.7664 24.3756 23.2125 24.102 23.6573 23.6573C24.102 23.2126 24.3756 22.7664 24.5801 22.2403C24.7778 21.7315 24.913 21.1499 24.9519 20.2984C24.9908 19.4451 25 19.1727 25 17.0001C25 14.8273 24.9908 14.5549 24.9519 13.7016C24.913 12.8501 24.7778 12.2686 24.5801 11.7597C24.3756 11.2336 24.102 10.7875 23.6573 10.3427C23.2125 9.89797 22.7664 9.62442 22.2403 9.42001C21.7314 9.22223 21.1499 9.08698 20.2984 9.04814C19.4451 9.00921 19.1727 9 17 9ZM14.3333 17.0001C14.3333 18.4728 15.5272 19.6667 17 19.6667C18.4728 19.6667 19.6667 18.4728 19.6667 17.0001C19.6667 15.5272 18.4728 14.3333 17 14.3333C15.5272 14.3333 14.3333 15.5272 14.3333 17.0001ZM12.8919 17.0001C12.8919 14.7311 14.7311 12.8919 17 12.8919C19.2689 12.8919 21.1081 14.7311 21.1081 17.0001C21.1081 19.2688 19.2689 21.1081 17 21.1081C14.7311 21.1081 12.8919 19.2688 12.8919 17.0001ZM21.2704 13.6896C21.8007 13.6896 22.2305 13.2598 22.2305 12.7296C22.2305 12.1994 21.8007 11.7696 21.2704 11.7696C20.7403 11.7696 20.3104 12.1994 20.3104 12.7296C20.3104 13.2598 20.7403 13.6896 21.2704 13.6896Z" fill="#1570D0"/>
</g>
<defs>
<clipPath id="clip0_3268_23673">
<rect width="16" height="16" fill="white" transform="translate(9 9)"/>
</clipPath>
</defs>
</svg>
