<svg width="24" height="24" viewBox="0 0 24 24" fill="none" xmlns="http://www.w3.org/2000/svg">
<rect x="0.5" y="0.5" width="23" height="23" rx="6.5" stroke="white" stroke-opacity="0.8"/>
<g clip-path="url(#clip0_3267_14775)">
<path fill-rule="evenodd" clip-rule="evenodd" d="M12 4C9.82734 4 9.5549 4.00921 8.70162 4.04814C7.85011 4.08698 7.26856 4.22223 6.7597 4.42001C6.23363 4.62442 5.78749 4.89797 5.34271 5.34271C4.89796 5.78749 4.62442 6.23363 4.42001 6.7597C4.22223 7.26856 4.08698 7.85011 4.04814 8.70162C4.00921 9.55491 4 9.82734 4 12.0001C4 14.1727 4.00921 14.4451 4.04814 15.2984C4.08698 16.1499 4.22223 16.7315 4.42001 17.2403C4.62442 17.7664 4.89796 18.2126 5.34271 18.6573C5.78749 19.102 6.23363 19.3756 6.7597 19.5801C7.26856 19.7778 7.85011 19.913 8.70162 19.9519C9.5549 19.9908 9.82734 20 12 20C14.1727 20 14.4451 19.9908 15.2984 19.9519C16.1499 19.913 16.7314 19.7778 17.2403 19.5801C17.7664 19.3756 18.2125 19.102 18.6573 18.6573C19.102 18.2126 19.3756 17.7664 19.5801 17.2403C19.7778 16.7315 19.913 16.1499 19.9519 15.2984C19.9908 14.4451 20 14.1727 20 12.0001C20 9.82734 19.9908 9.55491 19.9519 8.70162C19.913 7.85011 19.7778 7.26856 19.5801 6.7597C19.3756 6.23363 19.102 5.78749 18.6573 5.34271C18.2125 4.89797 17.7664 4.62442 17.2403 4.42001C16.7314 4.22223 16.1499 4.08698 15.2984 4.04814C14.4451 4.00921 14.1727 4 12 4ZM9.33334 12.0001C9.33334 13.4728 10.5272 14.6667 12 14.6667C13.4728 14.6667 14.6667 13.4728 14.6667 12.0001C14.6667 10.5272 13.4728 9.33334 12 9.33334C10.5272 9.33334 9.33334 10.5272 9.33334 12.0001ZM7.8919 12.0001C7.8919 9.73115 9.73115 7.8919 12 7.8919C14.2689 7.8919 16.1081 9.73115 16.1081 12.0001C16.1081 14.2688 14.2689 16.1081 12 16.1081C9.73115 16.1081 7.8919 14.2688 7.8919 12.0001ZM16.2704 8.68959C16.8007 8.68959 17.2305 8.2598 17.2305 7.72959C17.2305 7.19939 16.8007 6.76958 16.2704 6.76958C15.7403 6.76958 15.3104 7.19939 15.3104 7.72959C15.3104 8.2598 15.7403 8.68959 16.2704 8.68959Z" fill="white"/>
</g>
<defs>
<clipPath id="clip0_3267_14775">
<rect width="16" height="16" fill="white" transform="translate(4 4)"/>
</clipPath>
</defs>
</svg>
