<svg width="185" height="38" viewBox="0 0 185 38" fill="none" xmlns="http://www.w3.org/2000/svg">
<path d="M0 20L5 15L13.5 23.5L8.5 28.5L0 20Z" fill="url(#paint0_linear_5105_5)"/>
<path d="M43 20L38 15L29.5 23.5L34.5 28.5L43 20Z" fill="url(#paint1_linear_5105_5)"/>
<path d="M21.5 17.5L12 8L6 14L21.5 29.5L37 14L31 8L21.5 17.5Z" fill="url(#paint2_linear_5105_5)"/>
<path opacity="0.1" d="M49 8L49 29" stroke="black"/>
<path d="M60.939 29.472C60.0223 29.472 59.2377 29.3437 58.585 29.087C57.9323 28.823 57.43 28.4417 57.078 27.943C56.726 27.4443 56.55 26.843 56.55 26.139C56.55 25.435 56.726 24.8373 57.078 24.346C57.43 23.8473 57.9323 23.466 58.585 23.202C59.2377 22.938 60.0223 22.806 60.939 22.806C60.9463 22.806 60.9647 22.806 60.994 22.806C61.0233 22.806 61.0527 22.806 61.082 22.806C61.1113 22.806 61.1297 22.806 61.137 22.806C62.061 22.806 62.8493 22.938 63.502 23.202C64.1547 23.466 64.657 23.8473 65.009 24.346C65.361 24.8373 65.537 25.435 65.537 26.139C65.537 26.843 65.361 27.4443 65.009 27.943C64.6643 28.4417 64.1657 28.823 63.513 29.087C62.8603 29.3437 62.0793 29.472 61.17 29.472C61.1553 29.472 61.1297 29.472 61.093 29.472C61.0637 29.472 61.0307 29.472 60.994 29.472C60.9647 29.472 60.9463 29.472 60.939 29.472ZM61.027 28.834C61.0417 28.834 61.0563 28.834 61.071 28.834C61.0857 28.834 61.0967 28.834 61.104 28.834C61.874 28.8267 62.5303 28.7203 63.073 28.515C63.623 28.3023 64.041 27.998 64.327 27.602C64.613 27.1987 64.756 26.711 64.756 26.139C64.756 25.5597 64.6093 25.072 64.316 24.676C64.03 24.28 63.6157 23.9793 63.073 23.774C62.5377 23.5613 61.8887 23.455 61.126 23.455C61.1187 23.455 61.104 23.455 61.082 23.455C61.06 23.455 61.0417 23.455 61.027 23.455C60.2497 23.455 59.586 23.5577 59.036 23.763C58.486 23.9683 58.0643 24.2727 57.771 24.676C57.4777 25.072 57.331 25.5597 57.331 26.139C57.331 26.7257 57.4777 27.2207 57.771 27.624C58.0717 28.02 58.497 28.3207 59.047 28.526C59.6043 28.7313 60.2643 28.834 61.027 28.834ZM60.664 30.264V22.036H61.423V30.264H60.664ZM70.7839 30V28.724L70.7509 28.515V26.381C70.7509 25.8897 70.6116 25.512 70.3329 25.248C70.0616 24.984 69.6546 24.852 69.1119 24.852C68.7379 24.852 68.3822 24.9143 68.0449 25.039C67.7076 25.1637 67.4216 25.3287 67.1869 25.534L66.8349 24.951C67.1282 24.7017 67.4802 24.511 67.8909 24.379C68.3016 24.2397 68.7342 24.17 69.1889 24.17C69.9369 24.17 70.5126 24.357 70.9159 24.731C71.3266 25.0977 71.5319 25.6587 71.5319 26.414V30H70.7839ZM68.7929 30.055C68.3602 30.055 67.9826 29.9853 67.6599 29.846C67.3446 29.6993 67.1026 29.5013 66.9339 29.252C66.7652 28.9953 66.6809 28.702 66.6809 28.372C66.6809 28.0713 66.7506 27.8 66.8899 27.558C67.0366 27.3087 67.2712 27.1107 67.5939 26.964C67.9239 26.81 68.3639 26.733 68.9139 26.733H70.9049V27.316H68.9359C68.3786 27.316 67.9899 27.415 67.7699 27.613C67.5572 27.811 67.4509 28.0567 67.4509 28.35C67.4509 28.68 67.5792 28.944 67.8359 29.142C68.0926 29.34 68.4519 29.439 68.9139 29.439C69.3539 29.439 69.7316 29.34 70.0469 29.142C70.3696 28.9367 70.6042 28.6433 70.7509 28.262L70.9269 28.801C70.7802 29.1823 70.5236 29.4867 70.1569 29.714C69.7976 29.9413 69.3429 30.055 68.7929 30.055ZM76.207 30.066C75.7377 30.066 75.3197 29.989 74.953 29.835C74.5937 29.681 74.2857 29.4463 74.029 29.131C73.7723 28.8157 73.578 28.427 73.446 27.965C73.314 27.4957 73.248 26.953 73.248 26.337C73.248 25.787 73.2993 25.3067 73.402 24.896C73.5047 24.478 73.6477 24.1187 73.831 23.818C74.0143 23.5173 74.227 23.2643 74.469 23.059C74.7183 22.8463 74.986 22.6777 75.272 22.553C75.5653 22.421 75.866 22.322 76.174 22.256L78.77 21.651L78.902 22.377L76.46 22.927C76.306 22.9637 76.119 23.015 75.899 23.081C75.6863 23.147 75.4663 23.246 75.239 23.378C75.019 23.51 74.8137 23.6933 74.623 23.928C74.4323 24.1627 74.2783 24.467 74.161 24.841C74.051 25.2077 73.996 25.666 73.996 26.216C73.996 26.3333 73.9997 26.4287 74.007 26.502C74.0143 26.568 74.0217 26.6413 74.029 26.722C74.0437 26.7953 74.0547 26.9053 74.062 27.052L73.721 26.766C73.8017 26.3187 73.9667 25.93 74.216 25.6C74.4653 25.2627 74.777 25.0023 75.151 24.819C75.5323 24.6283 75.954 24.533 76.416 24.533C76.9513 24.533 77.428 24.6503 77.846 24.885C78.264 25.1123 78.5903 25.4313 78.825 25.842C79.067 26.2527 79.188 26.7293 79.188 27.272C79.188 27.8073 79.0633 28.2877 78.814 28.713C78.572 29.1383 78.2273 29.472 77.78 29.714C77.3327 29.9487 76.8083 30.066 76.207 30.066ZM76.295 29.417C76.7057 29.417 77.0687 29.3253 77.384 29.142C77.6993 28.9513 77.945 28.6947 78.121 28.372C78.3043 28.0493 78.396 27.6863 78.396 27.283C78.396 26.887 78.3043 26.535 78.121 26.227C77.945 25.919 77.6993 25.677 77.384 25.501C77.0687 25.3177 76.702 25.226 76.284 25.226C75.8733 25.226 75.5103 25.314 75.195 25.49C74.8797 25.6587 74.6303 25.897 74.447 26.205C74.271 26.513 74.183 26.8687 74.183 27.272C74.183 27.6753 74.271 28.0383 74.447 28.361C74.6303 28.6837 74.8797 28.9403 75.195 29.131C75.5177 29.3217 75.8843 29.417 76.295 29.417ZM83.843 30.055C83.3443 30.055 82.8933 29.9413 82.49 29.714C82.0866 29.4793 81.764 29.1457 81.522 28.713C81.2873 28.273 81.17 27.7377 81.17 27.107C81.17 26.4763 81.2873 25.9447 81.522 25.512C81.7566 25.072 82.0756 24.7383 82.479 24.511C82.8823 24.2837 83.337 24.17 83.843 24.17C84.393 24.17 84.8843 24.2947 85.317 24.544C85.757 24.786 86.1016 25.1307 86.351 25.578C86.6003 26.018 86.725 26.5277 86.725 27.107C86.725 27.6937 86.6003 28.207 86.351 28.647C86.1016 29.087 85.757 29.4317 85.317 29.681C84.8843 29.9303 84.393 30.055 83.843 30.055ZM80.862 32.134V24.225H81.61V25.963L81.533 27.118L81.643 28.284V32.134H80.862ZM83.788 29.362C84.1986 29.362 84.5653 29.2703 84.888 29.087C85.2106 28.8963 85.4673 28.6323 85.658 28.295C85.8486 27.9503 85.944 27.5543 85.944 27.107C85.944 26.6597 85.8486 26.2673 85.658 25.93C85.4673 25.5927 85.2106 25.3287 84.888 25.138C84.5653 24.9473 84.1986 24.852 83.788 24.852C83.3773 24.852 83.007 24.9473 82.677 25.138C82.3543 25.3287 82.0976 25.5927 81.907 25.93C81.7236 26.2673 81.632 26.6597 81.632 27.107C81.632 27.5543 81.7236 27.9503 81.907 28.295C82.0976 28.6323 82.3543 28.8963 82.677 29.087C83.007 29.2703 83.3773 29.362 83.788 29.362ZM88.403 30V24.225H89.184V28.812L93.045 24.225H93.738V30H92.957V25.402L89.107 30H88.403ZM100.211 30L97.8352 27.14L98.4842 26.755L101.135 30H100.211ZM95.9762 30V24.225H96.7572V30H95.9762ZM96.5152 27.426V26.755H98.3742V27.426H96.5152ZM98.5502 27.195L97.8242 27.085L100.123 24.225H100.97L98.5502 27.195ZM105.846 30V28.724L105.813 28.515V26.381C105.813 25.8897 105.674 25.512 105.395 25.248C105.124 24.984 104.717 24.852 104.174 24.852C103.8 24.852 103.445 24.9143 103.107 25.039C102.77 25.1637 102.484 25.3287 102.249 25.534L101.897 24.951C102.191 24.7017 102.543 24.511 102.953 24.379C103.364 24.2397 103.797 24.17 104.251 24.17C104.999 24.17 105.575 24.357 105.978 24.731C106.389 25.0977 106.594 25.6587 106.594 26.414V30H105.846ZM103.855 30.055C103.423 30.055 103.045 29.9853 102.722 29.846C102.407 29.6993 102.165 29.5013 101.996 29.252C101.828 28.9953 101.743 28.702 101.743 28.372C101.743 28.0713 101.813 27.8 101.952 27.558C102.099 27.3087 102.334 27.1107 102.656 26.964C102.986 26.81 103.426 26.733 103.976 26.733H105.967V27.316H103.998C103.441 27.316 103.052 27.415 102.832 27.613C102.62 27.811 102.513 28.0567 102.513 28.35C102.513 28.68 102.642 28.944 102.898 29.142C103.155 29.34 103.514 29.439 103.976 29.439C104.416 29.439 104.794 29.34 105.109 29.142C105.432 28.9367 105.667 28.6433 105.813 28.262L105.989 28.801C105.843 29.1823 105.586 29.4867 105.219 29.714C104.86 29.9413 104.405 30.055 103.855 30.055ZM115.787 30L113.411 27.14L114.06 26.755L116.711 30H115.787ZM111.552 30V24.225H112.333V30H111.552ZM112.091 27.426V26.755H113.95V27.426H112.091ZM114.126 27.195L113.4 27.085L115.699 24.225H116.546L114.126 27.195ZM120.925 30.055C120.426 30.055 119.975 29.9413 119.572 29.714C119.169 29.4793 118.846 29.1457 118.604 28.713C118.369 28.273 118.252 27.7377 118.252 27.107C118.252 26.4763 118.369 25.9447 118.604 25.512C118.839 25.072 119.158 24.7383 119.561 24.511C119.964 24.2837 120.419 24.17 120.925 24.17C121.475 24.17 121.966 24.2947 122.399 24.544C122.839 24.786 123.184 25.1307 123.433 25.578C123.682 26.018 123.807 26.5277 123.807 27.107C123.807 27.6937 123.682 28.207 123.433 28.647C123.184 29.087 122.839 29.4317 122.399 29.681C121.966 29.9303 121.475 30.055 120.925 30.055ZM117.944 32.134V24.225H118.692V25.963L118.615 27.118L118.725 28.284V32.134H117.944ZM120.87 29.362C121.281 29.362 121.647 29.2703 121.97 29.087C122.293 28.8963 122.549 28.6323 122.74 28.295C122.931 27.9503 123.026 27.5543 123.026 27.107C123.026 26.6597 122.931 26.2673 122.74 25.93C122.549 25.5927 122.293 25.3287 121.97 25.138C121.647 24.9473 121.281 24.852 120.87 24.852C120.459 24.852 120.089 24.9473 119.759 25.138C119.436 25.3287 119.18 25.5927 118.989 25.93C118.806 26.2673 118.714 26.6597 118.714 27.107C118.714 27.5543 118.806 27.9503 118.989 28.295C119.18 28.6323 119.436 28.8963 119.759 29.087C120.089 29.2703 120.459 29.362 120.87 29.362ZM127.861 30.055C127.304 30.055 126.801 29.9303 126.354 29.681C125.914 29.4243 125.566 29.076 125.309 28.636C125.052 28.1887 124.924 27.679 124.924 27.107C124.924 26.5277 125.052 26.018 125.309 25.578C125.566 25.138 125.914 24.7933 126.354 24.544C126.794 24.2947 127.296 24.17 127.861 24.17C128.433 24.17 128.939 24.2947 129.379 24.544C129.826 24.7933 130.175 25.138 130.424 25.578C130.681 26.018 130.809 26.5277 130.809 27.107C130.809 27.679 130.681 28.1887 130.424 28.636C130.175 29.076 129.826 29.4243 129.379 29.681C128.932 29.9303 128.426 30.055 127.861 30.055ZM127.861 29.362C128.279 29.362 128.649 29.2703 128.972 29.087C129.295 28.8963 129.548 28.6323 129.731 28.295C129.922 27.9503 130.017 27.5543 130.017 27.107C130.017 26.6523 129.922 26.2563 129.731 25.919C129.548 25.5817 129.295 25.3213 128.972 25.138C128.649 24.9473 128.283 24.852 127.872 24.852C127.461 24.852 127.095 24.9473 126.772 25.138C126.449 25.3213 126.193 25.5817 126.002 25.919C125.811 26.2563 125.716 26.6523 125.716 27.107C125.716 27.5543 125.811 27.9503 126.002 28.295C126.193 28.6323 126.449 28.8963 126.772 29.087C127.095 29.2703 127.458 29.362 127.861 29.362ZM132.478 30V24.225H135.03C135.683 24.225 136.196 24.3497 136.57 24.599C136.952 24.8483 137.142 25.215 137.142 25.699C137.142 26.1683 136.963 26.5313 136.603 26.788C136.244 27.0373 135.771 27.162 135.184 27.162L135.338 26.931C136.028 26.931 136.534 27.0593 136.856 27.316C137.179 27.5727 137.34 27.943 137.34 28.427C137.34 28.9257 137.157 29.3143 136.79 29.593C136.431 29.8643 135.87 30 135.107 30H132.478ZM133.237 29.384H135.074C135.566 29.384 135.936 29.307 136.185 29.153C136.442 28.9917 136.57 28.735 136.57 28.383C136.57 28.031 136.457 27.7743 136.229 27.613C136.002 27.4517 135.643 27.371 135.151 27.371H133.237V29.384ZM133.237 26.788H134.975C135.423 26.788 135.764 26.7037 135.998 26.535C136.24 26.3663 136.361 26.1207 136.361 25.798C136.361 25.4753 136.24 25.2333 135.998 25.072C135.764 24.9107 135.423 24.83 134.975 24.83H133.237V26.788ZM142.757 30V28.724L142.724 28.515V26.381C142.724 25.8897 142.584 25.512 142.306 25.248C142.034 24.984 141.627 24.852 141.085 24.852C140.711 24.852 140.355 24.9143 140.018 25.039C139.68 25.1637 139.394 25.3287 139.16 25.534L138.808 24.951C139.101 24.7017 139.453 24.511 139.864 24.379C140.274 24.2397 140.707 24.17 141.162 24.17C141.91 24.17 142.485 24.357 142.889 24.731C143.299 25.0977 143.505 25.6587 143.505 26.414V30H142.757ZM140.766 30.055C140.333 30.055 139.955 29.9853 139.633 29.846C139.317 29.6993 139.075 29.5013 138.907 29.252C138.738 28.9953 138.654 28.702 138.654 28.372C138.654 28.0713 138.723 27.8 138.863 27.558C139.009 27.3087 139.244 27.1107 139.567 26.964C139.897 26.81 140.337 26.733 140.887 26.733H142.878V27.316H140.909C140.351 27.316 139.963 27.415 139.743 27.613C139.53 27.811 139.424 28.0567 139.424 28.35C139.424 28.68 139.552 28.944 139.809 29.142C140.065 29.34 140.425 29.439 140.887 29.439C141.327 29.439 141.704 29.34 142.02 29.142C142.342 28.9367 142.577 28.6433 142.724 28.262L142.9 28.801C142.753 29.1823 142.496 29.4867 142.13 29.714C141.77 29.9413 141.316 30.055 140.766 30.055ZM146.684 30V24.698L146.882 24.907H144.495V24.225H149.654V24.907H147.267L147.465 24.698V30H146.684ZM152.989 30.055C152.388 30.055 151.86 29.9303 151.405 29.681C150.951 29.4243 150.595 29.076 150.338 28.636C150.082 28.1887 149.953 27.679 149.953 27.107C149.953 26.535 150.074 26.029 150.316 25.589C150.566 25.149 150.903 24.8043 151.328 24.555C151.761 24.2983 152.245 24.17 152.78 24.17C153.323 24.17 153.803 24.2947 154.221 24.544C154.647 24.786 154.98 25.1307 155.222 25.578C155.464 26.018 155.585 26.5277 155.585 27.107C155.585 27.1437 155.582 27.184 155.574 27.228C155.574 27.2647 155.574 27.305 155.574 27.349H150.547V26.766H155.156L154.848 26.997C154.848 26.579 154.757 26.2087 154.573 25.886C154.397 25.556 154.155 25.2993 153.847 25.116C153.539 24.9327 153.184 24.841 152.78 24.841C152.384 24.841 152.029 24.9327 151.713 25.116C151.398 25.2993 151.152 25.556 150.976 25.886C150.8 26.216 150.712 26.5937 150.712 27.019V27.14C150.712 27.58 150.808 27.9687 150.998 28.306C151.196 28.636 151.468 28.8963 151.812 29.087C152.164 29.2703 152.564 29.362 153.011 29.362C153.363 29.362 153.69 29.2997 153.99 29.175C154.298 29.0503 154.562 28.8597 154.782 28.603L155.222 29.109C154.966 29.417 154.643 29.6517 154.254 29.813C153.873 29.9743 153.451 30.055 152.989 30.055ZM157.314 30V24.225H158.095V28.812L161.956 24.225H162.649V30H161.868V25.402L158.018 30H157.314ZM159.932 23.389C159.448 23.389 159.056 23.268 158.755 23.026C158.462 22.7767 158.308 22.421 158.293 21.959H158.854C158.861 22.2523 158.964 22.4833 159.162 22.652C159.36 22.8207 159.617 22.905 159.932 22.905C160.247 22.905 160.504 22.8207 160.702 22.652C160.907 22.4833 161.014 22.2523 161.021 21.959H161.582C161.575 22.421 161.421 22.7767 161.12 23.026C160.819 23.268 160.423 23.389 159.932 23.389Z" fill="black"/>
<path d="M56.975 17V7.9H59.094L62.851 14.088H61.733L65.412 7.9H67.531L67.557 17H65.178L65.165 11.501H65.568L62.825 16.103H61.681L58.86 11.501H59.341V17H56.975ZM69.1026 17L73.1196 7.9H75.6546L79.6846 17H77.0066L73.8606 9.161H74.8746L71.7286 17H69.1026ZM71.2996 15.232L71.9626 13.334H76.4086L77.0716 15.232H71.2996ZM81.2474 17V7.9H85.4074C86.2394 7.9 86.9544 8.03433 87.5524 8.303C88.1591 8.57167 88.6271 8.96167 88.9564 9.473C89.2858 9.97567 89.4504 10.5737 89.4504 11.267C89.4504 11.9517 89.2858 12.5453 88.9564 13.048C88.6271 13.5507 88.1591 13.9407 87.5524 14.218C86.9544 14.4867 86.2394 14.621 85.4074 14.621H82.6774L83.8214 13.503V17H81.2474ZM83.8214 13.776L82.6774 12.593H85.2514C85.7888 12.593 86.1874 12.476 86.4474 12.242C86.7161 12.008 86.8504 11.683 86.8504 11.267C86.8504 10.8423 86.7161 10.513 86.4474 10.279C86.1874 10.045 85.7888 9.928 85.2514 9.928H82.6774L83.8214 8.745V13.776ZM96.8826 17L94.3216 12.671L96.3886 11.449L99.7816 17H96.8826ZM91.0846 17V7.9H93.6456V17H91.0846ZM92.9046 13.516V11.436H96.2066V13.516H92.9046ZM96.6356 12.723L94.2566 12.463L97.0516 7.9H99.7556L96.6356 12.723ZM103.493 11.423H107.718V13.347H103.493V11.423ZM103.675 15.011H108.433V17H101.127V7.9H108.264V9.889H103.675V15.011ZM112.435 17V9.369L113.007 9.941H109.64V7.9H117.752V9.941H114.398L114.97 9.369V17H112.435Z" fill="url(#paint3_linear_5105_5)"/>
<path d="M121.975 17V7.9H124.094L127.851 14.088H126.733L130.412 7.9H132.531L132.557 17H130.178L130.165 11.501H130.568L127.825 16.103H126.681L123.86 11.501H124.341V17H121.975ZM137.379 11.423H141.604V13.347H137.379V11.423ZM137.561 15.011H142.319V17H135.013V7.9H142.15V9.889H137.561V15.011ZM144.305 17V7.9H151.91V9.889H146.84V11.358H149.193C150.302 11.358 151.147 11.592 151.728 12.06C152.317 12.528 152.612 13.204 152.612 14.088C152.612 14.998 152.283 15.713 151.624 16.233C150.965 16.7443 150.042 17 148.855 17H144.305ZM146.84 15.154H148.686C149.111 15.154 149.436 15.0673 149.661 14.894C149.895 14.7207 150.012 14.4737 150.012 14.153C150.012 13.5117 149.57 13.191 148.686 13.191H146.84V15.154ZM156.827 11.423H161.052V13.347H156.827V11.423ZM157.009 15.011H161.767V17H154.461V7.9H161.598V9.889H157.009V15.011ZM164.13 17.156C163.957 17.156 163.771 17.143 163.571 17.117C163.381 17.091 163.177 17.052 162.96 17L163.103 14.894C163.225 14.92 163.342 14.933 163.454 14.933C163.81 14.933 164.078 14.7943 164.26 14.517C164.442 14.231 164.568 13.8323 164.637 13.321C164.715 12.8097 164.763 12.2117 164.78 11.527L164.91 7.9H172.242V17H169.707V9.369L170.266 9.941H166.587L167.107 9.343L167.042 11.423C167.016 12.307 166.956 13.1043 166.86 13.815C166.765 14.517 166.613 15.1193 166.405 15.622C166.197 16.116 165.907 16.4973 165.534 16.766C165.17 17.026 164.702 17.156 164.13 17.156ZM174.709 17V7.9H177.244V13.243L181.001 7.9H183.419V17H180.884V11.67L177.14 17H174.709Z" fill="url(#paint4_linear_5105_5)"/>
<defs>
<linearGradient id="paint0_linear_5105_5" x1="2" y1="17.5" x2="8" y2="28.5" gradientUnits="userSpaceOnUse">
<stop stop-color="#1586EC"/>
<stop offset="1" stop-color="#123E81"/>
</linearGradient>
<linearGradient id="paint1_linear_5105_5" x1="38" y1="14.5" x2="34.5" y2="29.5" gradientUnits="userSpaceOnUse">
<stop stop-color="#1587ED"/>
<stop offset="1" stop-color="#123E81"/>
</linearGradient>
<linearGradient id="paint2_linear_5105_5" x1="21.5" y1="8" x2="21.5" y2="29.5" gradientUnits="userSpaceOnUse">
<stop stop-color="#FBEF00"/>
<stop offset="1" stop-color="#80C900"/>
</linearGradient>
<linearGradient id="paint3_linear_5105_5" x1="93.8" y1="17" x2="93.8" y2="3" gradientUnits="userSpaceOnUse">
<stop stop-color="#1450A8"/>
<stop offset="0.938969" stop-color="#1586EC"/>
</linearGradient>
<linearGradient id="paint4_linear_5105_5" x1="153" y1="0" x2="153" y2="24" gradientUnits="userSpaceOnUse">
<stop stop-color="#FBEF00"/>
<stop offset="1" stop-color="#80C900"/>
</linearGradient>
</defs>
</svg>
