<svg width="329" height="44" viewBox="0 0 329 44" fill="none" xmlns="http://www.w3.org/2000/svg">
<path d="M0 21.6937L8.96423 12.7295L24.2034 27.9687L15.2392 36.9329L0 21.6937Z" fill="url(#paint0_linear_583_21076)"/>
<path d="M77.0921 21.6937L68.1279 12.7295L52.8887 27.9687L61.8529 36.9329L77.0921 21.6937Z" fill="url(#paint1_linear_583_21076)"/>
<path d="M38.5459 17.2117L21.5139 0.179688L10.7568 10.9368L38.5459 38.7259L66.335 10.9368L55.578 0.179688L38.5459 17.2117Z" fill="url(#paint2_linear_583_21076)"/>
<path d="M87.8491 0.179688L87.8491 37.8294" stroke="white"/>
<path d="M115.943 33.3292C115.943 30.0124 113.433 28.0403 109.238 27.8969V26.6419H108.001V27.8969C103.788 28.0403 101.296 29.9945 101.296 33.3292C101.296 36.6639 103.788 38.6181 108.001 38.7615V40.0524H109.238V38.7615C113.451 38.636 115.943 36.6639 115.943 33.3292ZM109.238 37.7037V28.9726C112.663 29.0981 114.671 30.6399 114.671 33.3292C114.671 36.0185 112.68 37.5603 109.238 37.7037ZM102.569 33.3292C102.569 30.6399 104.541 29.116 108.001 28.9726V37.7037C104.595 37.5424 102.569 36.0364 102.569 33.3292Z" fill="white"/>
<path d="M125.481 30.12C123.993 30.12 122.595 30.5862 121.645 31.3929L122.218 32.3431C122.989 31.6619 124.137 31.2316 125.356 31.2316C127.113 31.2316 128.027 32.1101 128.027 33.7236V34.2973H125.033C122.326 34.2973 121.394 35.5165 121.394 36.9687C121.394 38.6002 122.702 39.7117 124.836 39.7117C126.396 39.7117 127.507 39.1201 128.081 38.152V39.6221H129.3V33.7774C129.3 31.3391 127.92 30.12 125.481 30.12ZM125.033 38.7077C123.527 38.7077 122.649 38.0265 122.649 36.9328C122.649 35.9647 123.24 35.2475 125.069 35.2475H128.027V36.7894C127.525 38.0265 126.467 38.7077 125.033 38.7077Z" fill="white"/>
<path d="M140.846 30.4248C139.071 30.4248 137.655 31.3033 136.902 32.7555C137.027 29.7435 138.246 28.3989 140.918 27.8072L144.898 26.8929L144.683 25.7275L140.452 26.6957C137.242 27.4487 135.683 29.4208 135.683 33.5264C135.683 37.3631 137.44 39.7297 140.613 39.7297C143.428 39.7297 145.364 37.8113 145.364 35.0324C145.364 32.3073 143.499 30.4248 140.846 30.4248ZM140.649 38.6719C138.641 38.6719 137.207 37.1838 137.207 35.0683C137.207 32.9706 138.623 31.5722 140.649 31.5722C142.675 31.5722 144.073 32.9706 144.073 35.0683C144.073 37.1838 142.657 38.6719 140.649 38.6719Z" fill="white"/>
<path d="M156.537 30.12C154.977 30.12 153.668 30.8013 152.897 32.0563V30.1917H151.678V43.1002H152.951V37.8472C153.74 39.0663 155.031 39.7117 156.537 39.7117C159.226 39.7117 161.234 37.7755 161.234 34.9069C161.234 32.0563 159.226 30.12 156.537 30.12ZM156.447 38.5822C154.439 38.5822 152.933 37.1121 152.933 34.9069C152.933 32.7196 154.439 31.2316 156.447 31.2316C158.437 31.2316 159.961 32.7196 159.961 34.9069C159.961 37.1121 158.437 38.5822 156.447 38.5822Z" fill="white"/>
<path d="M167.555 39.6221H168.702L174.977 32.128V39.6221H176.25V30.1917H175.12L168.827 37.6858V30.1917H167.555V39.6221Z" fill="white"/>
<path d="M190.386 39.6221H191.892L187.912 34.7635L191.623 30.1917H190.243L186.926 34.3332H184.756V30.1917H183.484V39.6221H184.756V35.4268H186.908L190.386 39.6221Z" fill="white"/>
<path d="M200.557 30.12C199.069 30.12 197.67 30.5862 196.72 31.3929L197.294 32.3431C198.065 31.6619 199.212 31.2316 200.431 31.2316C202.188 31.2316 203.102 32.1101 203.102 33.7236V34.2973H200.108C197.401 34.2973 196.469 35.5165 196.469 36.9687C196.469 38.6002 197.778 39.7117 199.911 39.7117C201.471 39.7117 202.583 39.1201 203.156 38.152V39.6221H204.375V33.7774C204.375 31.3391 202.995 30.12 200.557 30.12ZM200.108 38.7077C198.602 38.7077 197.724 38.0265 197.724 36.9328C197.724 35.9647 198.316 35.2475 200.144 35.2475H203.102V36.7894C202.6 38.0265 201.543 38.7077 200.108 38.7077Z" fill="white"/>
<path d="M226.53 39.6221H228.036L224.056 34.7635L227.767 30.1917H226.387L223.07 34.3332H220.901V30.1917H219.628V39.6221H220.901V35.4268H223.052L226.53 39.6221Z" fill="white"/>
<path d="M238.489 30.12C236.93 30.12 235.621 30.8013 234.85 32.0563V30.1917H233.631V43.1002H234.904V37.8472C235.692 39.0663 236.983 39.7117 238.489 39.7117C241.179 39.7117 243.187 37.7755 243.187 34.9069C243.187 32.0563 241.179 30.12 238.489 30.12ZM238.4 38.5822C236.392 38.5822 234.886 37.1121 234.886 34.9069C234.886 32.7196 236.392 31.2316 238.4 31.2316C240.39 31.2316 241.914 32.7196 241.914 34.9069C241.914 37.1121 240.39 38.5822 238.4 38.5822Z" fill="white"/>
<path d="M253.398 39.7117C256.159 39.7117 258.185 37.7037 258.185 34.9069C258.185 32.1101 256.159 30.12 253.398 30.12C250.637 30.12 248.593 32.1101 248.593 34.9069C248.593 37.7037 250.637 39.7117 253.398 39.7117ZM253.398 38.5822C251.39 38.5822 249.884 37.1121 249.884 34.9069C249.884 32.7017 251.39 31.2316 253.398 31.2316C255.406 31.2316 256.894 32.7017 256.894 34.9069C256.894 37.1121 255.406 38.5822 253.398 38.5822Z" fill="white"/>
<path d="M270.497 34.7456C271.483 34.387 272.092 33.6698 272.092 32.6121C272.092 31.0523 270.784 30.1917 268.65 30.1917H264.491V39.6221H268.776C271.232 39.6221 272.415 38.6898 272.415 37.0583C272.415 35.8213 271.806 35.0503 270.497 34.7456ZM265.728 31.1957H268.561C270.013 31.1957 270.82 31.7156 270.82 32.7734C270.82 33.8312 270.013 34.387 268.561 34.387H265.728V31.1957ZM268.722 38.6181H265.728V35.3372H268.847C270.443 35.3372 271.16 35.8571 271.16 36.9866C271.16 38.1161 270.318 38.6181 268.722 38.6181Z" fill="white"/>
<path d="M282.229 30.12C280.741 30.12 279.343 30.5862 278.392 31.3929L278.966 32.3431C279.737 31.6619 280.885 31.2316 282.104 31.2316C283.861 31.2316 284.775 32.1101 284.775 33.7236V34.2973H281.781C279.074 34.2973 278.141 35.5165 278.141 36.9687C278.141 38.6002 279.45 39.7117 281.584 39.7117C283.144 39.7117 284.255 39.1201 284.829 38.152V39.6221H286.048V33.7774C286.048 31.3391 284.667 30.12 282.229 30.12ZM281.781 38.7077C280.275 38.7077 279.396 38.0265 279.396 36.9328C279.396 35.9647 279.988 35.2475 281.817 35.2475H284.775V36.7894C284.273 38.0265 283.215 38.7077 281.781 38.7077Z" fill="white"/>
<path d="M299.656 30.1917H291.247V31.3212H294.815V39.6221H296.088V31.3212H299.656V30.1917Z" fill="white"/>
<path d="M312.909 34.9069C312.909 32.0742 310.991 30.12 308.337 30.12C305.684 30.12 303.73 32.1101 303.73 34.9069C303.73 37.7037 305.738 39.7117 308.678 39.7117C310.166 39.7117 311.475 39.1739 312.318 38.1699L311.6 37.3452C310.883 38.1699 309.861 38.5822 308.714 38.5822C306.652 38.5822 305.146 37.2735 305.003 35.3013H312.891C312.891 35.1579 312.909 35.0145 312.909 34.9069ZM308.337 31.2136C310.184 31.2136 311.529 32.5045 311.69 34.3511H305.003C305.164 32.5045 306.509 31.2136 308.337 31.2136Z" fill="white"/>
<path d="M323.598 28.8471C325.193 28.8471 326.251 28.0224 326.287 26.5164H325.372C325.337 27.4666 324.619 28.0582 323.598 28.0582C322.576 28.0582 321.858 27.4666 321.841 26.5164H320.926C320.962 28.0224 322.002 28.8471 323.598 28.8471ZM319.313 39.6221H320.46L326.735 32.128V39.6221H328.008V30.1917H326.878L320.586 37.6858V30.1917H319.313V39.6221Z" fill="white"/>
<path d="M121.119 16.3149L121.073 0H117.274L111.68 9.41603L105.947 0H102.147V16.3149H106.389V7.85446L110.585 14.7067H112.636L116.831 7.668L116.854 16.3149H121.119Z" fill="white"/>
<path d="M138.061 16.3149H142.862L135.637 0H131.092L123.89 16.3149H128.598L129.88 13.1451H136.779L138.061 16.3149ZM131.232 9.74232L133.33 4.52155L135.427 9.74232H131.232Z" fill="white"/>
<path d="M153.122 0H145.664V16.3149H150.279V12.0497H153.122C157.574 12.0497 160.371 9.74232 160.371 6.03651C160.371 2.30739 157.574 0 153.122 0ZM152.843 8.41382H150.279V3.63589H152.843C154.754 3.63589 155.709 4.52156 155.709 6.03651C155.709 7.52816 154.754 8.41382 152.843 8.41382Z" fill="white"/>
<path d="M173.696 16.3149H178.893L173.742 7.87776L178.846 0H173.999L170.106 6.3395H167.892V0H163.301V16.3149H167.892V10.0686H169.99L173.696 16.3149Z" fill="white"/>
<path d="M185.874 12.7489V9.76563H193.122V6.31619H185.874V3.56597H194.101V0H181.306V16.3149H194.404V12.7489H185.874Z" fill="white"/>
<path d="M211.111 0H196.567V3.6592H201.578V16.3149H206.123V3.6592H211.111V0Z" fill="white"/>
<path d="M237.655 16.3149L237.608 0H233.809L228.215 9.41603L222.482 0H218.683V16.3149H222.924V7.85446L227.12 14.7067H229.171L233.366 7.668L233.389 16.3149H237.655Z" fill="url(#paint3_linear_583_21076)"/>
<path d="M246.625 12.7489V9.76563H253.874V6.31619H246.625V3.56597H254.853V0H242.057V16.3149H255.156V12.7489H246.625Z" fill="url(#paint4_linear_583_21076)"/>
<path d="M258.717 16.3149H266.874C271.116 16.3149 273.61 14.3804 273.61 11.0708C273.61 7.92438 271.443 6.19966 267.48 6.19966H263.262V3.56597H272.352V0H258.717V16.3149ZM263.262 13.0053V9.48595H266.571C268.156 9.48595 268.949 10.0453 268.949 11.2107C268.949 12.376 268.11 13.0053 266.571 13.0053H263.262Z" fill="url(#paint5_linear_583_21076)"/>
<path d="M281.493 12.7489V9.76563H288.741V6.31619H281.493V3.56597H289.72V0H276.925V16.3149H290.023V12.7489H281.493Z" fill="url(#paint6_linear_583_21076)"/>
<path d="M295.659 0L295.426 6.50265C295.286 10.1852 294.936 12.6091 293.048 12.6091C292.839 12.6091 292.629 12.5858 292.419 12.5392L292.163 16.3149C292.932 16.5014 293.631 16.5946 294.26 16.5946C298.409 16.5946 299.271 12.679 299.481 6.31619L299.574 3.6592H304.259V16.3149H308.804V0H295.659Z" fill="url(#paint7_linear_583_21076)"/>
<path d="M313.226 16.3149H317.585L324.297 6.75903V16.3149H328.842V0H324.507L317.771 9.57917V0H313.226V16.3149Z" fill="url(#paint8_linear_583_21076)"/>
<defs>
<linearGradient id="paint0_linear_583_21076" x1="3.58569" y1="17.2116" x2="14.3428" y2="36.9329" gradientUnits="userSpaceOnUse">
<stop stop-color="#1586EC"/>
<stop offset="1" stop-color="#123E81"/>
</linearGradient>
<linearGradient id="paint1_linear_583_21076" x1="68.1279" y1="11.8331" x2="61.8529" y2="38.7257" gradientUnits="userSpaceOnUse">
<stop stop-color="#1587ED"/>
<stop offset="1" stop-color="#123E81"/>
</linearGradient>
<linearGradient id="paint2_linear_583_21076" x1="38.5459" y1="0.179687" x2="38.5459" y2="38.7259" gradientUnits="userSpaceOnUse">
<stop stop-color="#FBEF00"/>
<stop offset="1" stop-color="#DAD502"/>
</linearGradient>
<linearGradient id="paint3_linear_583_21076" x1="285.78" y1="16.3149" x2="285.959" y2="-0.717126" gradientUnits="userSpaceOnUse">
<stop stop-color="#C2BE00"/>
<stop offset="0.938969" stop-color="#F1EC00"/>
</linearGradient>
<linearGradient id="paint4_linear_583_21076" x1="285.78" y1="16.3149" x2="285.959" y2="-0.717126" gradientUnits="userSpaceOnUse">
<stop stop-color="#C2BE00"/>
<stop offset="0.938969" stop-color="#F1EC00"/>
</linearGradient>
<linearGradient id="paint5_linear_583_21076" x1="285.78" y1="16.3149" x2="285.959" y2="-0.717126" gradientUnits="userSpaceOnUse">
<stop stop-color="#C2BE00"/>
<stop offset="0.938969" stop-color="#F1EC00"/>
</linearGradient>
<linearGradient id="paint6_linear_583_21076" x1="285.78" y1="16.3149" x2="285.959" y2="-0.717126" gradientUnits="userSpaceOnUse">
<stop stop-color="#C2BE00"/>
<stop offset="0.938969" stop-color="#F1EC00"/>
</linearGradient>
<linearGradient id="paint7_linear_583_21076" x1="285.78" y1="16.3149" x2="285.959" y2="-0.717126" gradientUnits="userSpaceOnUse">
<stop stop-color="#C2BE00"/>
<stop offset="0.938969" stop-color="#F1EC00"/>
</linearGradient>
<linearGradient id="paint8_linear_583_21076" x1="285.78" y1="16.3149" x2="285.959" y2="-0.717126" gradientUnits="userSpaceOnUse">
<stop stop-color="#C2BE00"/>
<stop offset="0.938969" stop-color="#F1EC00"/>
</linearGradient>
</defs>
</svg>
