<svg width="18" height="18" viewBox="0 0 18 18" fill="none" xmlns="http://www.w3.org/2000/svg">
<g id="menu (3) 1" clip-path="url(#clip0_583_20888)">
<g id="Group">
<g id="Group_2">
<g id="Group_3">
<path id="Vector" d="M7.24967 0.5H16.7503C17.1992 0.5 17.5 0.830915 17.5 1.1595V2.8405C17.5 3.16908 17.1992 3.5 16.7503 3.5H7.24967C6.80084 3.5 6.5 3.16908 6.5 2.8405V1.1595C6.5 0.830916 6.80084 0.5 7.24967 0.5Z" stroke="#1570D0"/>
<path id="Vector_2" d="M7.24967 7.5H16.7503C17.1992 7.5 17.5 7.83092 17.5 8.1595V9.8405C17.5 10.1691 17.1992 10.5 16.7503 10.5H7.24967C6.80084 10.5 6.5 10.1691 6.5 9.8405V8.1595C6.5 7.83092 6.80084 7.5 7.24967 7.5Z" stroke="#1570D0"/>
<path id="Vector_3" d="M7.16636 14.5H16.8336C17.2034 14.5 17.5 14.7991 17.5 15.1596V16.8405C17.5 17.2009 17.2034 17.5 16.8336 17.5H7.16636C6.79661 17.5 6.5 17.2009 6.5 16.8405V15.1596C6.5 14.7991 6.79663 14.5 7.16636 14.5Z" stroke="#1570D0"/>
<path id="Vector_4" d="M1.10898 0.5H2.89102C3.20559 0.5 3.5 0.775089 3.5 1.1595V2.8405C3.5 3.22491 3.20559 3.5 2.89102 3.5H1.10898C0.794408 3.5 0.5 3.22491 0.5 2.8405V1.1595C0.5 0.775089 0.794408 0.5 1.10898 0.5Z" stroke="#1570D0"/>
<path id="Vector_5" d="M1.10898 7.5H2.89102C3.20559 7.5 3.5 7.77509 3.5 8.1595V9.8405C3.5 10.2249 3.20559 10.5 2.89102 10.5H1.10898C0.794408 10.5 0.5 10.2249 0.5 9.8405V8.1595C0.5 7.77509 0.794408 7.5 1.10898 7.5Z" stroke="#1570D0"/>
<path id="Vector_6" d="M1.10898 14.5H2.89102C3.20557 14.5 3.5 14.7751 3.5 15.1596V16.8405C3.5 17.2249 3.20559 17.5 2.89102 17.5H1.10898C0.794408 17.5 0.5 17.2249 0.5 16.8405V15.1596C0.5 14.7751 0.794426 14.5 1.10898 14.5Z" stroke="#1570D0"/>
</g>
</g>
</g>
</g>
<defs>
<clipPath id="clip0_583_20888">
<rect width="18" height="18" fill="white"/>
</clipPath>
</defs>
</svg>
