<svg width="12" height="12" viewBox="0 0 12 12" fill="none" xmlns="http://www.w3.org/2000/svg">
<g id="descendant 2" clip-path="url(#clip0_583_21021)">
<g id="Group">
<path id="Vector" d="M8.28489 0.325781C8.15129 0.389062 5.26614 3.28359 5.21457 3.40312C5.12551 3.62344 5.22864 3.88594 5.44895 4.00312C5.54504 4.05234 5.75598 4.05 5.85911 3.99844C5.90364 3.975 6.40286 3.49687 6.9677 2.93437L7.99192 1.91016V6.08437V10.2562L8.05286 10.3805C8.14426 10.5609 8.25676 10.6289 8.47239 10.6289C8.68801 10.6289 8.80051 10.5609 8.89192 10.3805L8.95286 10.2562V6.08437V1.91016L9.97942 2.93437C10.5419 3.49687 11.0411 3.975 11.0857 3.99844C11.1888 4.05 11.3997 4.05234 11.4958 4.00312C11.7161 3.88594 11.8193 3.62344 11.7302 3.40312C11.6786 3.28359 8.79348 0.389062 8.65989 0.325781C8.60832 0.302343 8.52395 0.28125 8.47239 0.28125C8.42082 0.28125 8.33645 0.302343 8.28489 0.325781Z" fill="black"/>
<path id="Vector_2" d="M3.3514 1.45762C3.28109 1.49512 3.2225 1.55371 3.17562 1.62871L3.10531 1.74121L3.09828 5.93887L3.09359 10.1365L2.06703 9.1123C1.50453 8.5498 1.00531 8.07168 0.960779 8.04824C0.857654 7.99668 0.646717 7.99434 0.550623 8.04355C0.323279 8.16543 0.222498 8.43965 0.325623 8.65996C0.388904 8.79355 3.28344 11.6787 3.40297 11.7303C3.51312 11.7748 3.635 11.7748 3.74515 11.7303C3.86469 11.6787 6.75922 8.79355 6.8225 8.65996C6.92562 8.43965 6.82484 8.16543 6.5975 8.04355C6.5014 7.99434 6.29047 7.99668 6.18734 8.04824C6.14281 8.07168 5.64359 8.5498 5.08109 9.1123L4.05453 10.1365V5.9623V1.79043L3.99359 1.66621C3.90922 1.4998 3.79203 1.42246 3.59984 1.41074C3.48265 1.40371 3.43812 1.41309 3.3514 1.45762Z" fill="black"/>
</g>
</g>
<defs>
<clipPath id="clip0_583_21021">
<rect width="12" height="12" fill="white"/>
</clipPath>
</defs>
</svg>
