<svg width="13" height="14" viewBox="0 0 13 14" fill="none" xmlns="http://www.w3.org/2000/svg">
<path d="M12.9045 5.22949C12.86 5.08579 12.7415 4.98107 12.5989 4.95937L8.59272 4.34908L6.80104 0.543493C6.73728 0.408021 6.60566 0.322266 6.46156 0.322266C6.31744 0.322266 6.18583 0.408021 6.12205 0.543493L4.33029 4.34908L0.324158 4.95937C0.181575 4.98107 0.0630721 5.08579 0.0185483 5.22947C-0.0260008 5.37317 0.0111529 5.53089 0.11436 5.63634L3.01316 8.59858L2.32894 12.7814C2.30456 12.9303 2.36297 13.0807 2.47955 13.1696C2.5455 13.2198 2.62362 13.2453 2.70212 13.2453C2.76239 13.2453 2.82287 13.2303 2.87825 13.1998L6.46153 11.2249L10.0447 13.1997C10.1723 13.27 10.3268 13.2583 10.4434 13.1695C10.56 13.0807 10.6184 12.9302 10.594 12.7813L9.90961 8.59858L12.8087 5.63631C12.9119 5.53089 12.9491 5.37317 12.9045 5.22949Z" fill="#FFC621"/>
</svg>
