<svg width="22" height="23" viewBox="0 0 22 23" fill="none" xmlns="http://www.w3.org/2000/svg">
<path d="M21.6854 8.78836C21.6106 8.54688 21.4116 8.37089 21.1719 8.33443L14.4397 7.30887L11.4288 0.913755C11.3217 0.6861 11.1005 0.541992 10.8583 0.541992C10.6162 0.541992 10.395 0.6861 10.2878 0.913755L7.27686 7.30887L0.544732 8.33443C0.305129 8.37089 0.10599 8.54688 0.0311695 8.78832C-0.0436932 9.0298 0.0187419 9.29485 0.192177 9.47204L5.06347 14.45L3.91368 21.479C3.87271 21.7292 3.97086 21.982 4.16677 22.1313C4.2776 22.2157 4.40888 22.2586 4.54079 22.2586C4.64207 22.2586 4.7437 22.2333 4.83676 22.182L10.8583 18.8633L16.8796 22.182C17.094 22.3001 17.3537 22.2805 17.5496 22.1312C17.7455 21.982 17.8437 21.7291 17.8028 21.4789L16.6526 14.45L21.5245 9.472C21.6979 9.29485 21.7603 9.0298 21.6854 8.78836Z" fill="#B7B7B7"/>
</svg>
