<svg width="16" height="16" viewBox="0 0 16 16" fill="none" xmlns="http://www.w3.org/2000/svg">
<path d="M15.4997 11.8138V14.0218C15.5005 14.2267 15.4585 14.4296 15.3762 14.6174C15.2939 14.8052 15.1732 14.9738 15.0219 15.1124C14.8706 15.2509 14.6919 15.3564 14.4973 15.4221C14.3028 15.4878 14.0966 15.5121 13.8921 15.4937C11.6229 15.2476 9.44315 14.4737 7.52803 13.2343C5.74625 12.1043 4.23562 10.5967 3.10341 8.81841C1.85713 6.8984 1.08154 4.7124 0.839482 2.4375C0.821053 2.23398 0.845289 2.02886 0.910645 1.8352C0.976 1.64154 1.08104 1.46358 1.21909 1.31266C1.35713 1.16173 1.52515 1.04115 1.71245 0.958579C1.89975 0.876012 2.10222 0.833272 2.30698 0.833079H4.51929C4.87717 0.829564 5.22412 0.956045 5.49548 1.18895C5.76683 1.42185 5.94407 1.74528 5.99416 2.09896C6.08754 2.80554 6.26071 3.49932 6.51036 4.16705C6.60958 4.43047 6.63106 4.71676 6.57224 4.99199C6.51343 5.26721 6.37679 5.51985 6.17852 5.71995L5.24197 6.65464C6.29176 8.49719 7.82039 10.0228 9.66659 11.0705L10.6031 10.1358C10.8036 9.93793 11.0568 9.80156 11.3325 9.74286C11.6083 9.68416 11.8952 9.70559 12.1591 9.80461C12.8282 10.0538 13.5233 10.2266 14.2313 10.3198C14.5895 10.3702 14.9167 10.5503 15.1506 10.8258C15.3844 11.1012 15.5087 11.4529 15.4997 11.8138Z" stroke="black" stroke-linecap="round" stroke-linejoin="round"/>
</svg>
