<svg width="18" height="18" viewBox="0 0 18 18" fill="none" xmlns="http://www.w3.org/2000/svg">
<path d="M16.4982 12.8141V15.022C16.4991 15.227 16.457 15.4298 16.3747 15.6177C16.2925 15.8055 16.1718 15.974 16.0204 16.1126C15.8691 16.2512 15.6904 16.3567 15.4959 16.4223C15.3013 16.488 15.0952 16.5124 14.8906 16.4939C12.6214 16.2479 10.4417 15.474 8.52656 14.2345C6.74479 13.1045 5.23416 11.5969 4.10195 9.81865C2.85566 7.89864 2.08007 5.71264 1.83802 3.43775C1.81959 3.23423 1.84382 3.02911 1.90918 2.83544C1.97454 2.64178 2.07958 2.46383 2.21762 2.3129C2.35567 2.16198 2.52369 2.04139 2.71099 1.95882C2.89829 1.87626 3.10076 1.83352 3.30551 1.83332H5.51782C5.8757 1.82981 6.22266 1.95629 6.49401 2.18919C6.76537 2.42209 6.94261 2.74553 6.99269 3.0992C7.08607 3.80579 7.25924 4.49956 7.5089 5.16729C7.60812 5.43071 7.62959 5.717 7.57078 5.99223C7.51196 6.26746 7.37532 6.52009 7.17705 6.7202L6.24051 7.65489C7.29029 9.49743 8.81892 11.023 10.6651 12.0707L11.6017 11.136C11.8022 10.9382 12.0553 10.8018 12.3311 10.7431C12.6069 10.6844 12.8937 10.7058 13.1577 10.8049C13.8267 11.054 14.5219 11.2268 15.2299 11.32C15.5881 11.3705 15.9152 11.5506 16.1491 11.826C16.383 12.1015 16.5072 12.4531 16.4982 12.8141Z" stroke="#123E81" stroke-width="2" stroke-linecap="round" stroke-linejoin="round"/>
</svg>
