<svg width="22" height="17" viewBox="0 0 22 17" fill="none" xmlns="http://www.w3.org/2000/svg">
<path d="M16.4997 12.8138V15.0218C16.5005 15.2267 16.4585 15.4296 16.3762 15.6174C16.2939 15.8052 16.1732 15.9738 16.0219 16.1124C15.8706 16.2509 15.6919 16.3564 15.4973 16.4221C15.3028 16.4878 15.0966 16.5121 14.8921 16.4937C12.6229 16.2476 10.4431 15.4737 8.52803 14.2343C6.74625 13.1043 5.23562 11.5967 4.10341 9.81841C2.85713 7.8984 2.08154 5.7124 1.83948 3.4375C1.82105 3.23398 1.84529 3.02886 1.91064 2.8352C1.976 2.64154 2.08104 2.46358 2.21909 2.31266C2.35713 2.16173 2.52515 2.04115 2.71245 1.95858C2.89975 1.87601 3.10222 1.83327 3.30698 1.83308H5.51929C5.87717 1.82956 6.22412 1.95604 6.49548 2.18895C6.76683 2.42185 6.94407 2.74528 6.99416 3.09896C7.08754 3.80554 7.26071 4.49932 7.51036 5.16705C7.60958 5.43047 7.63106 5.71676 7.57224 5.99199C7.51343 6.26721 7.37679 6.51985 7.17852 6.71995L6.24197 7.65464C7.29176 9.49719 8.82039 11.0228 10.6666 12.0705L11.6031 11.1358C11.8036 10.9379 12.0568 10.8016 12.3325 10.7429C12.6083 10.6842 12.8952 10.7056 13.1591 10.8046C13.8282 11.0538 14.5233 11.2266 15.2313 11.3198C15.5895 11.3702 15.9167 11.5503 16.1506 11.8258C16.3844 12.1012 16.5087 12.4529 16.4997 12.8138Z" stroke="white" stroke-linecap="round" stroke-linejoin="round"/>
</svg>
