<svg width="57" height="57" viewBox="0 0 57 57" fill="none" xmlns="http://www.w3.org/2000/svg">
<g id="forklift 1">
<path id="Vector" d="M2 9.11972V11.2394H3.05986H4.11972V28.5V45.7606H3.05986H2V47.8803V50H23.5H45V47.8803V45.7606H43.9401H42.8803V28.5V11.2394H43.9401H45V9.11972V7H23.5H2V9.11972ZM32.0798 26.3298V28.5H23.5H14.9202V26.3298V24.1596H23.5H32.0798V26.3298ZM21.3601 39.2702L21.3298 45.7101L18.13 45.7404L14.9202 45.7606V39.3005V32.8404H18.1502H21.3803L21.3601 39.2702ZM32.0798 39.3005V45.7606L28.88 45.7404L25.6702 45.7101L25.6399 39.2702L25.6197 32.8404H28.8498H32.0798V39.3005Z" fill="#1570D0"/>
</g>
</svg>
