<svg width="57" height="57" viewBox="0 0 57 57" fill="none" xmlns="http://www.w3.org/2000/svg">
<g id="forklift 1">
<g id="Vector">
<path d="M20.2567 4.12974C19.5241 4.38529 18.9993 5.12246 19.0092 5.89894C19.0092 6.36089 20.2072 10.1352 20.3458 10.1057C20.3953 10.0959 21.8705 10.0566 23.6328 10.0172L26.8208 9.94843L27.3752 9.27024C27.9296 8.60188 29.0187 7.63865 29.8899 7.05874C30.4147 6.7049 31.7116 6.0562 32.3948 5.80065C32.9492 5.59424 32.9888 5.39766 32.6126 4.84725C32.2958 4.38529 31.8007 4.09042 31.2067 4.02162C30.7909 3.97248 30.5929 4.02162 29.6919 4.40495C28.5237 4.89639 27.2861 5.23057 26.3158 5.31903C25.2961 5.41732 23.6922 5.034 21.821 4.23786C21.1477 3.95282 20.8012 3.93316 20.2567 4.12974Z" fill="#1570D0"/>
<path d="M34.7709 6.77371C32.5631 7.19635 30.7513 8.13992 29.187 9.68305C28.2068 10.6463 27.6623 11.4129 27.0584 12.671C25.1476 16.691 26.0287 21.4482 29.2563 24.5247C31.3354 26.5003 33.6917 27.4733 36.4243 27.4831C40.7013 27.4831 44.315 25.2815 46.0377 21.6153C46.6516 20.3277 46.9288 19.1286 46.9882 17.497C47.0476 15.8556 46.8892 14.7941 46.3743 13.3591C45.1863 10.0566 42.4933 7.72711 38.8994 6.92114C37.7807 6.66559 35.7214 6.59679 34.7709 6.77371ZM37.0777 10.1057C37.3252 10.3219 37.3549 10.4202 37.3945 11.1672L37.4342 12.0027L37.8698 12.1796C38.1272 12.2779 38.5034 12.5727 38.8004 12.8873C39.8499 14.0372 39.8499 15.5804 38.8004 15.5804C38.3648 15.5804 38.0084 15.2364 38.0084 14.8236C38.0084 13.7915 36.8005 13.1035 35.8897 13.6343C35.2065 14.0372 34.959 14.7941 35.3154 15.4821C35.553 15.9637 36.0085 16.2291 36.6916 16.2881C38.4638 16.4551 39.7113 17.8705 39.5628 19.5316C39.4638 20.6226 38.84 21.517 37.85 21.9986L37.4143 22.205V22.8243C37.4143 23.9644 36.9688 24.4755 36.2461 24.1708C35.8897 24.0234 35.8402 23.8858 35.8105 22.9127L35.7808 22.2247L35.1966 21.9298C33.9294 21.291 33.1076 19.453 33.8006 18.7748C34.3155 18.2538 34.9986 18.5585 35.1471 19.3645C35.256 19.9444 35.4441 20.2491 35.86 20.4948C37.0381 21.2123 38.444 19.9149 37.85 18.6666C37.6124 18.1752 37.2262 17.9491 36.454 17.8509C35.5629 17.7427 35.1471 17.556 34.5531 17.0056C33.5927 16.1111 33.3155 14.7351 33.8799 13.5949C34.1967 12.9561 34.7709 12.3958 35.3946 12.1206L35.8303 11.9339V11.1082C35.8303 10.3416 35.8501 10.2728 36.0877 10.086C36.4342 9.82066 36.7411 9.83049 37.0777 10.1057Z" fill="#1570D0"/>
<path d="M20.7319 11.6488C19.0686 12.0518 18.0192 13.6343 18.3162 15.256C18.4548 15.9834 18.6825 16.4158 19.2072 16.9269C19.9993 17.7132 20.2666 17.782 22.4744 17.8214L24.4149 17.8509L24.4743 16.7402C24.5733 14.9612 25.009 13.1526 25.6426 11.9142L25.8307 11.5505L23.4348 11.5604C22.1081 11.5702 20.9002 11.5997 20.7319 11.6488Z" fill="#1570D0"/>
<path d="M16.4549 18.1752C15.9797 18.6765 15.2965 19.394 14.95 19.7871L14.3263 20.4948H17.0984C20.1379 20.4948 20.6329 20.5538 21.5438 20.9863C22.6625 21.5367 23.5041 22.4606 23.9694 23.699L24.1971 24.2789V43.1504L23.9694 43.7303C23.3754 45.2832 22.1774 46.3841 20.6329 46.7871C20.1676 46.905 19.3954 46.9345 16.8212 46.9345C14.6728 46.9345 13.653 46.9738 13.752 47.0328C14.0689 47.2392 15.7916 47.7306 16.7024 47.8781C17.5241 48.0058 18.93 48.0157 26.4247 47.9862C36.157 47.9567 35.7313 47.9764 37.5233 47.2687C40.9983 45.9025 43.3448 43.229 44.2655 39.5923C44.5526 38.462 44.5724 36.0539 44.3051 34.3535C43.9883 32.3091 43.325 30.0387 42.5131 28.2301L42.2656 27.6699L41.6518 27.9746C38.5826 29.5079 34.563 29.4391 31.2265 27.7977C28.8702 26.628 26.8604 24.6721 25.7317 22.4606C25.3258 21.6448 24.9001 20.4752 24.7911 19.8265L24.7218 19.4136H22.7219C19.9795 19.4136 19.227 19.1777 17.9895 17.9295L17.3261 17.2611L16.4549 18.1752Z" fill="#1570D0"/>
<path d="M6.27713 22.205C5.32667 22.4999 4.66334 23.0798 4.25741 23.9251L4 24.4755V42.9538L4.25741 43.5042C4.57423 44.1726 5.06926 44.6837 5.7623 45.0473L6.27713 45.3127H20.2369L20.7517 45.0768C21.3656 44.8016 22.0982 44.0645 22.3952 43.4158L22.613 42.9538V24.4755L22.3952 24.0136C22.0982 23.3648 21.3656 22.6277 20.7517 22.3525L20.2369 22.1166L13.455 22.0969C8.17803 22.0871 6.58404 22.1068 6.27713 22.205ZM18.9003 24.9276C19.1082 25.0456 19.3657 25.311 19.4845 25.5174C19.6924 25.881 19.7023 25.999 19.6726 27.8861C19.6429 29.7929 19.633 29.8912 19.4152 30.2057C18.9201 30.8839 19.1181 30.8643 13.4055 30.8938L8.25724 30.9233L7.81171 30.6972C7.5642 30.5694 7.26718 30.3237 7.14837 30.1369C6.93056 29.8224 6.92066 29.7143 6.92066 27.8272C6.92066 25.5763 6.98006 25.3405 7.6731 24.9473C8.05922 24.7212 8.05922 24.7212 13.2966 24.7212C18.4449 24.7212 18.534 24.7212 18.9003 24.9276ZM9.97993 33.4296C10.2571 33.7736 10.2373 34.0882 9.95023 34.4223C9.71262 34.6877 9.68291 34.6975 8.50475 34.727C7.84141 34.7467 7.18798 34.7369 7.05927 34.7074C6.44544 34.5501 6.22762 33.8424 6.64345 33.4001C6.85136 33.1839 6.92066 33.1741 8.31664 33.1741C9.77202 33.1741 9.78192 33.1741 9.97993 33.4296ZM14.7124 33.3903C15.1579 33.8031 14.9302 34.5501 14.3065 34.7074C14.1778 34.7369 13.5243 34.7467 12.861 34.727C11.6828 34.6975 11.6531 34.6877 11.4155 34.4223C11.1086 34.0685 11.1086 33.7245 11.4254 33.4198C11.6531 33.1839 11.7125 33.1741 13.0689 33.1741C14.3857 33.1741 14.4946 33.1937 14.7124 33.3903ZM19.9795 33.4296C20.3458 33.8916 20.1973 34.442 19.6528 34.6484C19.2963 34.7762 17.3261 34.7762 16.9301 34.6386C16.3955 34.4518 16.247 33.8228 16.643 33.4001C16.8509 33.1839 16.9202 33.1741 18.3162 33.1741C19.7716 33.1741 19.7815 33.1741 19.9795 33.4296ZM9.94033 37.1548C10.0987 37.3022 10.1878 37.5086 10.1878 37.6954C10.1878 37.8821 10.0987 38.0885 9.94033 38.2359C9.71262 38.4718 9.65321 38.4817 8.32654 38.4817C7.07907 38.4817 6.92066 38.462 6.68305 38.2753C6.48504 38.118 6.42563 37.9902 6.42563 37.6954C6.42563 37.4005 6.48504 37.2727 6.68305 37.1154C6.92066 36.9287 7.07907 36.909 8.32654 36.909C9.65321 36.909 9.71262 36.9189 9.94033 37.1548ZM14.6926 37.1548C14.851 37.3022 14.9401 37.5086 14.9401 37.6954C14.9401 37.8821 14.851 38.0885 14.6926 38.2359C14.4649 38.4718 14.4055 38.4817 13.1679 38.4817C11.7818 38.4817 11.465 38.403 11.2868 38.0197C11.1185 37.656 11.1581 37.4103 11.4254 37.1548C11.6531 36.9189 11.7125 36.909 13.059 36.909C14.4055 36.909 14.4649 36.9189 14.6926 37.1548ZM19.9399 37.1548C20.0983 37.3022 20.1874 37.5086 20.1874 37.6954C20.1874 37.8821 20.0983 38.0885 19.9399 38.2359C19.7122 38.4718 19.6528 38.4817 18.3063 38.4817C16.9598 38.4817 16.9004 38.4718 16.6727 38.2359C16.3262 37.9018 16.3361 37.3907 16.6826 37.1154C16.9202 36.9287 17.0786 36.909 18.3261 36.909C19.6528 36.909 19.7122 36.9189 19.9399 37.1548ZM9.72252 40.762C10.2373 41.0273 10.3364 41.5778 9.94033 41.9709C9.71262 42.2068 9.65321 42.2166 8.29684 42.2166C6.98006 42.2166 6.87116 42.197 6.65335 42.0004C6.27713 41.6466 6.38603 40.9291 6.85136 40.7423C7.17808 40.6145 9.4651 40.6244 9.72252 40.762ZM14.752 40.929C14.9995 41.2337 14.9896 41.7055 14.7223 41.9906C14.5144 42.2068 14.4451 42.2166 13.0887 42.2166C11.7125 42.2166 11.6531 42.2068 11.4254 41.9709C11.1581 41.7154 11.1086 41.2829 11.3066 41.0273C11.5739 40.6833 11.8016 40.644 13.1877 40.6637C14.4946 40.6932 14.5738 40.703 14.752 40.929ZM19.7221 40.762C20.2369 41.0273 20.3359 41.5778 19.9399 41.9709C19.7122 42.2068 19.6528 42.2166 18.2964 42.2166C16.9796 42.2166 16.8707 42.197 16.6529 42.0004C16.2668 41.6367 16.3658 41.0273 16.8707 40.762C17.138 40.6145 19.4449 40.6145 19.7221 40.762Z" fill="#1570D0"/>
<path d="M8.50475 29.3408H18.1083V26.2939H8.50475V29.3408Z" fill="#1570D0"/>
</g>
</g>
</svg>
