<svg width="57" height="57" viewBox="0 0 57 57" fill="none" xmlns="http://www.w3.org/2000/svg">
<g id="forklift 1">
<g id="Vector">
<path d="M5.17839 5.0827C4.75 5.19296 3.96615 5.6524 3.72005 5.94643C3.59245 6.10264 3.38281 6.43343 3.24609 6.69071L3 7.15934V49.8866L3.24609 50.3552C3.61068 51.0536 3.88411 51.3384 4.52214 51.6876L5.09635 52H35.8125L36.3867 51.6876C37.0247 51.3384 37.2982 51.0536 37.6628 50.3552L37.9089 49.8866L37.9544 19.711L25.513 19.6559L25.0482 19.4078C24.3555 19.0403 24.0729 18.7646 23.7266 18.1214L23.4167 17.5425L23.362 5L14.4115 5.00919C9.48958 5.01838 5.33333 5.04594 5.17839 5.0827ZM15.4232 11.1288C15.9609 11.5331 16.0339 11.7261 16.0612 12.9114L16.0977 14.0049L16.5443 14.1335C17.2826 14.3632 18.1667 14.8411 18.5859 15.2545C18.8958 15.5578 18.9961 15.7232 19.0417 16.054C19.1875 17.0188 18.5312 17.7722 17.556 17.7722C17.319 17.7722 17.0182 17.6436 16.5443 17.3588C15.4323 16.688 14.2565 16.5869 13.181 17.0831C11.2396 17.9836 11.2396 19.9591 13.181 20.8504C13.582 21.0342 13.9375 21.1077 14.7305 21.172C16.7357 21.3374 17.8112 21.7969 18.9505 22.9546C19.7344 23.7541 20.0807 24.3329 20.3177 25.261C20.9375 27.6868 19.306 30.2413 16.5625 31.1417L16.0977 31.2979L16.0612 32.3822C16.0339 33.5584 15.9609 33.7513 15.4049 34.1648C15.0495 34.4313 14.1927 34.4313 13.8372 34.1648C13.2812 33.7513 13.2083 33.5584 13.181 32.3822L13.1445 31.2979L12.4518 31.0499C12.069 30.9212 11.4674 30.618 11.1302 30.3975C10.6289 30.0667 10.4648 29.8921 10.319 29.5613C10 28.8354 10.2005 28.183 10.8841 27.7144C11.3763 27.3744 11.8958 27.4387 12.6979 27.9257C13.8099 28.5965 14.9857 28.6976 16.0612 28.2014C18.0026 27.3009 18.0026 25.3253 16.0612 24.434C15.6602 24.2502 15.3047 24.1767 14.5117 24.1124C12.5156 23.947 11.4219 23.4876 10.2917 22.3298C9.50781 21.5304 9.16146 20.9515 8.92448 20.0235C8.30469 17.5977 9.9362 15.0432 12.6888 14.1427L13.1628 13.9865V13.0309C13.1628 11.772 13.3542 11.3218 14.0286 11.0094C14.3932 10.8348 15.1133 10.8991 15.4232 11.1288ZM31.4466 25.8215C31.9297 26.1799 32.0755 26.4739 32.0755 27.0528C32.0755 27.6317 31.9297 27.9257 31.4466 28.2841C31.2096 28.4678 31.0638 28.477 27.9466 28.5046C25.8138 28.523 24.5742 28.4954 24.3555 28.4311C23.4349 28.1646 23.0794 26.8874 23.7083 26.1247C24.1641 25.5918 24.1914 25.5826 27.8555 25.6102C31.0729 25.6285 31.2096 25.6377 31.4466 25.8215ZM31.4466 31.7022C31.9297 32.0606 32.0755 32.3546 32.0755 32.9335C32.0755 33.5124 31.9297 33.8065 31.4466 34.1648C31.2096 34.3486 31.0638 34.3578 27.9466 34.3853C25.8138 34.4037 24.5742 34.3762 24.3555 34.3118C23.4349 34.0454 23.0794 32.7681 23.7083 32.0055C24.1641 31.4725 24.1914 31.4633 27.8555 31.4909C31.0729 31.5093 31.2096 31.5185 31.4466 31.7022ZM31.4466 37.583C31.9297 37.9413 32.0755 38.2354 32.0755 38.8143C32.0755 39.3932 31.9297 39.6872 31.4466 40.0456C31.2005 40.2385 31.1367 40.2385 20.6549 40.2661C13.4271 40.2845 10 40.2661 9.77214 40.1926C8.85156 39.9261 8.49609 38.6489 9.125 37.8862C9.59896 37.3165 8.95182 37.3441 20.5638 37.3717C31.1458 37.39 31.2005 37.39 31.4466 37.583ZM31.4466 43.4637C31.9297 43.8221 32.0755 44.1161 32.0755 44.695C32.0755 45.2739 31.9297 45.5679 31.4466 45.9263C31.2005 46.1193 31.1367 46.1193 20.6549 46.1468C13.4271 46.1652 10 46.1468 9.77214 46.0733C8.85156 45.8068 8.49609 44.5296 9.125 43.767C9.59896 43.1973 8.95182 43.2248 20.5638 43.2524C31.1458 43.2708 31.2005 43.2708 31.4466 43.4637Z" fill="#1570D0"/>
<path d="M26.2878 10.8807V16.7615H38L32.1667 10.8807C28.9583 7.64633 26.3242 5 26.3151 5C26.2969 5 26.2878 7.64633 26.2878 10.8807Z" fill="#1570D0"/>
</g>
</g>
</svg>
