<svg width="57" height="57" viewBox="0 0 57 57" fill="none" xmlns="http://www.w3.org/2000/svg">
<g id="forklift 1">
<g id="Vector">
<path d="M41.6396 6.23958C41.4383 6.43125 41.4 6.56542 41.4 7.00625V7.53333H35.1517C28.5008 7.53333 28.3379 7.54292 27.3029 8.00292C26.5075 8.3575 25.7792 8.99958 23.0479 11.7404L20.3646 14.4333H25.8175L27.1208 13.1396C28.2612 12.0183 28.4721 11.8458 28.7404 11.8458C28.9417 11.8458 29.1333 11.9321 29.2771 12.0854C29.5358 12.3346 29.5742 12.6029 29.4113 12.9288C29.3538 13.0437 27.9737 14.4717 26.3542 16.1104C23.7571 18.7267 23.3929 19.1388 23.2492 19.5508C23.0192 20.2504 23.0479 21.18 23.3258 21.7646C23.6133 22.3875 24.3896 23.0871 25.0221 23.2979C25.6929 23.5279 26.7375 23.4608 27.3125 23.1733C27.5904 23.0296 28.7692 21.9179 30.7242 19.9725L33.7142 16.9921L34.1742 17.155C35.2667 17.5383 36.6658 17.4233 37.6433 16.8771C38.2183 16.5608 38.64 16.5608 38.8987 16.8867C39.0137 17.0304 39.1 17.2413 39.1 17.3563C39.1 17.615 38.7837 18.0463 38.525 18.1229C38.3429 18.1804 38.3333 18.2858 38.3333 21.5346C38.3333 23.3746 38.3717 24.8792 38.41 24.8792C38.5442 24.8792 40.1733 23.9208 40.8058 23.4704L41.4 23.0487V23.4896C41.4 23.825 41.4575 23.9879 41.6396 24.1604C41.8696 24.4 41.8887 24.4 43.7 24.4C45.5112 24.4 45.5304 24.4 45.7604 24.1604L46 23.9304V6.46958L45.7604 6.23958C45.5304 6 45.5112 6 43.7 6C41.8887 6 41.8696 6 41.6396 6.23958Z" fill="#1570D0"/>
<path d="M6.37292 16.2063L6.13333 16.4363V31.5971L6.37292 31.8271L6.60292 32.0667H36.3304L36.5604 31.8271L36.8 31.5971V18.8513L35.9183 18.8992C35.4104 18.9279 34.845 18.9088 34.5958 18.8513L34.1646 18.7554L33.0912 19.8288C32.4971 20.4133 32.0083 20.9213 32.0083 20.95C32.0083 21.065 32.6887 21.3333 32.9762 21.3333C33.1487 21.3333 33.35 21.4196 33.4937 21.5729L33.7333 21.8029V23.9975C33.7333 26.5754 33.7333 26.5754 32.8708 26.7096C32.0179 26.8438 31.5771 27.2846 31.4429 28.1375C31.2896 29.0863 32.2671 29 21.4667 29C10.6758 29 11.6437 29.0863 11.4904 28.1471C11.3562 27.2846 10.7333 26.7 9.96667 26.7C9.78458 26.7 9.58333 26.6138 9.43958 26.4604L9.2 26.2304V24.0358C9.2 21.4579 9.2 21.4579 10.0625 21.3238C10.9154 21.1896 11.3562 20.7488 11.4904 19.8958C11.6342 18.9758 11.27 19.0333 16.905 19.0333H21.8021L22.0896 18.4775C22.2621 18.1517 22.7412 17.5479 23.3258 16.9442L24.2746 15.9667H6.60292L6.37292 16.2063Z" fill="#1570D0"/>
<path d="M12.7171 21.0746C12.42 21.7263 11.8929 22.2533 11.2413 22.5504L10.7333 22.7804V25.2529L11.2413 25.4829C11.8929 25.78 12.42 26.3071 12.7171 26.9587L12.9471 27.4667H29.9862L30.2163 26.9587C30.5133 26.3071 31.0404 25.78 31.6921 25.4829L32.2 25.2529V22.7804L31.7304 22.5696C31.4717 22.4642 31.1842 22.2917 31.0883 22.1863C30.935 22.0138 30.8871 22.0425 29.8042 23.0967C28.5008 24.3617 27.7342 24.8025 26.5842 24.9654C24.1883 25.3104 21.7733 23.4704 21.5817 21.1608L21.5338 20.5667H12.9471L12.7171 21.0746Z" fill="#1570D0"/>
<path d="M0.239583 33.8396L0 34.0696V51.5304L0.239583 51.7604L0.469583 52H5.66375L5.89375 51.7604C6.10458 51.5592 6.13333 51.4442 6.13333 50.7829V50.0258L12.7267 50.6296C16.56 50.9842 19.55 51.2237 19.895 51.195C20.2208 51.1662 20.6904 51.0704 20.9492 50.965C21.2079 50.8692 24.7154 48.9429 28.75 46.6908C32.7846 44.4292 36.6658 42.2633 37.375 41.8608C38.0842 41.4679 38.8317 40.9887 39.0329 40.7971C40.3075 39.5992 40.0583 37.5962 38.525 36.7242C38.0554 36.4558 37.9213 36.4271 37.2313 36.4367H36.4646L31.8358 38.4492L27.2071 40.4521L27.255 40.8737C27.3412 41.5158 27.1496 42.4837 26.7854 43.2696C26.4021 44.0746 25.6258 44.8988 24.8592 45.3108C23.8625 45.8475 23.6517 45.8667 18.7258 45.8667C14.2983 45.8667 14.2025 45.8667 13.9533 45.6654C13.6467 45.4258 13.6179 44.9467 13.8863 44.6112L14.0683 44.3812L23.5271 44.2854L24.0063 44.0267C24.5142 43.7583 25.185 43.1067 25.4246 42.6467C25.5012 42.4933 25.6163 42.1004 25.6833 41.7842C25.8846 40.7779 25.5204 39.7429 24.7154 39.0146C24.495 38.8133 24.1213 38.5642 23.8721 38.4492C23.4504 38.2575 23.2779 38.2479 18.8792 38.2L14.3271 38.1521L13.5125 37.7879C11.5383 36.8871 9.44917 36.2738 7.68583 36.0821C7.17792 36.0246 6.6125 35.9575 6.44958 35.9383L6.13333 35.8904V34.98C6.13333 34.1462 6.11417 34.0504 5.89375 33.8396L5.66375 33.6H0.469583L0.239583 33.8396Z" fill="#1570D0"/>
</g>
</g>
</svg>
