<svg width="57" height="57" viewBox="0 0 57 57" fill="none" xmlns="http://www.w3.org/2000/svg">
<g clip-path="url(#clip0_3267_7409)">
<path d="M0 26.8301H21.8426L21.0299 25.2938C20.5957 24.4588 20.2172 23.7463 20.1949 23.724C20.1615 23.6906 16.9107 22.4883 16.8439 22.4883C16.8217 22.4883 16.8105 22.7889 16.8105 23.1674C16.8105 23.7686 16.7771 23.8799 16.4877 24.1693C16.0758 24.5701 15.6082 24.5924 15.174 24.225L14.8623 23.9578V18.5695L15.174 18.3023C15.6082 17.935 16.0758 17.9572 16.4877 18.358C16.7883 18.6697 16.8105 18.7477 16.8105 19.5604V20.4287L17.8236 20.7961C18.4471 21.0076 18.8145 21.0967 18.7811 21.0076C18.7588 20.9408 17.4785 18.4693 15.9422 15.5303L13.1479 10.1865L6.57949 10.1531L0 10.1309V26.8301ZM3.32871 17.9795C3.81855 18.2244 3.89648 18.6363 3.89648 20.9965V23.1562H5.82246C7.42559 23.1562 7.8041 23.1896 8.12695 23.3566C8.86172 23.724 8.82832 24.7594 8.06015 25.0488C7.9043 25.1156 6.60176 25.1602 5.16562 25.1602H2.53828L1.89258 24.5145V21.5197C1.89258 18.3023 1.91484 18.1576 2.49375 17.9238C2.83887 17.7791 2.98359 17.7902 3.32871 17.9795Z" fill="#1570D0"/>
<path d="M35.124 13.6377L34.8457 13.9049V33.8438H29.9695L29.925 32.6971C29.8916 31.7508 29.8359 31.4725 29.591 31.0049C29.2014 30.259 28.4889 29.5688 27.7318 29.1902L27.1084 28.8897L20.4955 28.8229L20.4621 31.2832C20.4287 33.7213 20.4287 33.7547 20.1615 33.9662C19.7719 34.2779 19.1373 34.2445 18.8033 33.8883C18.5361 33.61 18.5361 33.5654 18.5027 31.2164L18.4693 28.834H16.8105V31.7508L16.4766 32.0848C16.176 32.3742 16.0758 32.4188 15.7307 32.3631C14.9625 32.2295 14.8623 32.0291 14.8289 30.3369L14.7844 28.834H0V34.0887C0 39.0762 0.0111328 39.3211 0.200391 39.1652C0.578906 38.8313 1.59199 38.3859 2.38242 38.2189C4.14141 37.8516 6.04512 38.4861 7.29199 39.8777C7.8041 40.4455 8.38301 41.5254 8.5166 42.1711L8.59453 42.5273L14.9959 42.5051L21.3973 42.4717L21.5977 41.8371C22.1654 40.0002 23.6906 38.6309 25.6277 38.2301C26.8969 37.9629 28.3887 38.2301 29.4129 38.9092C29.6467 39.065 29.8582 39.1875 29.8916 39.1875C29.925 39.1875 29.9473 38.4305 29.9473 37.5176V35.8477H34.8457V41.325L35.4914 41.9707H56.3543L56.6883 41.6367C56.9777 41.3361 57.0223 41.2359 56.9666 40.8797C56.833 40.1115 56.7217 40.0781 54.0387 40.0781H51.6562L51.634 36.8162L51.6006 33.5654L49.4631 33.532L47.3144 33.5098V33.8994C47.3144 34.623 46.9471 35.0572 46.3459 35.0684C45.8004 35.0684 45.4107 34.6676 45.3439 34.033L45.2771 33.5098H40.8574V40.0781H36.8496L36.7939 13.9383L36.5268 13.6488C36.1594 13.2592 35.5025 13.248 35.124 13.6377Z" fill="#1570D0"/>
<path d="M40.8574 31.6172H45.3105V31.35C45.3105 30.8713 45.5555 30.3926 45.8895 30.2145C46.5797 29.8582 47.3144 30.3592 47.3144 31.183V31.6172H51.6562V28.834H40.8574V31.6172Z" fill="#1570D0"/>
<path d="M1.91484 40.4121C0.79043 40.9799 0.144727 41.9262 0.0333984 43.1953C-0.0890625 44.509 0.623437 45.8338 1.79238 46.4795C2.32676 46.7801 2.49375 46.8135 3.33984 46.8135C4.15254 46.8135 4.36406 46.7689 4.85391 46.5129C5.47734 46.1789 5.98945 45.6557 6.36797 44.9432C6.57949 44.5535 6.62402 44.2975 6.62402 43.4736C6.62402 42.6053 6.57949 42.3937 6.32344 41.9039C5.45508 40.2562 3.5291 39.6105 1.91484 40.4121Z" fill="#1570D0"/>
<path d="M25.1713 40.4232C24.4143 40.8018 23.724 41.5477 23.468 42.2713C23.39 42.5051 23.3344 43.0729 23.3344 43.5293C23.3455 44.5424 23.635 45.2437 24.3586 45.9451C26.4182 47.9602 29.9473 46.435 29.9473 43.5182C29.9473 42.4494 29.6912 41.8037 28.9564 41.0689C27.8877 40.0002 26.4961 39.7664 25.1713 40.4232Z" fill="#1570D0"/>
</g>
<defs>
<clipPath id="clip0_3267_7409">
<rect width="57" height="57" fill="white"/>
</clipPath>
</defs>
</svg>
