<svg width="57" height="57" viewBox="0 0 57 57" fill="none" xmlns="http://www.w3.org/2000/svg">
<g id="forklift 1">
<g id="Group">
<g id="Vector">
<path d="M20.5801 5.23241C18.3202 6.16756 1.89926 13.5375 1.96605 13.5931C2.01059 13.6488 3.70277 14.417 5.71781 15.3187C9.07992 16.8105 9.41391 16.933 9.71449 16.8217C10.8612 16.3986 29.0188 8.2828 28.952 8.22713C28.9075 8.19373 27.3711 7.49237 25.5342 6.67967C22.662 5.3994 22.1053 5.18788 21.5264 5.15448C21.159 5.14334 20.736 5.17674 20.5801 5.23241Z" fill="#1570D0"/>
<path d="M22.6397 13.6933C17.5631 15.9533 13.1768 17.9127 12.9096 18.0351L12.4086 18.2801L21.3928 22.2656L31.0895 17.9683C36.4221 15.6082 40.8196 13.6377 40.8641 13.5931C40.942 13.5263 32.4477 9.69666 32.0469 9.61873C31.9579 9.6076 27.7274 11.4334 22.6397 13.6933Z" fill="#1570D0"/>
<path d="M0.00667969 27.409L0.0400781 39.3545L0.285 39.8221C0.429727 40.0781 0.696914 40.4121 0.897305 40.568C1.18676 40.7795 19.9901 49.207 20.1905 49.207C20.2239 49.207 20.2461 43.6183 20.2461 36.7939V24.392L19.9455 24.225C19.2553 23.8799 0.218203 15.4746 0.106875 15.4746C0.0178125 15.4746 -0.0155859 18.7031 0.00667969 27.409Z" fill="#1570D0"/>
<path d="M32.5256 19.9166L22.584 24.3252L22.5952 31.7842C22.6063 36.5045 22.6508 38.9982 22.7065 38.5752C23.1407 35.5805 24.4655 33.0422 26.692 30.9158C29.9985 27.7652 34.5852 26.5963 39.0606 27.7764C39.6618 27.9322 40.686 28.333 41.4319 28.7004L42.7344 29.3572V22.4103C42.7344 16.933 42.701 15.4746 42.6008 15.4857C42.5229 15.4969 37.9807 17.4896 32.5256 19.9166Z" fill="#1570D0"/>
<path d="M33.6055 29.8805C26.0909 31.4613 22.5618 39.9222 26.7588 46.2568C29.5532 50.4762 34.9526 52.1683 39.6395 50.2758C42.1778 49.2515 44.3487 47.1363 45.4174 44.6426C46.1188 42.9949 46.2412 42.3715 46.2301 40.3008C46.2301 38.6197 46.1967 38.3748 45.9184 37.4619C44.7717 33.699 42.0219 31.016 38.2813 30.0029C37.3127 29.7469 34.6075 29.6801 33.6055 29.8805ZM41.1536 37.1279C41.5766 37.4842 41.6879 37.9295 41.4764 38.4193C41.3762 38.642 39.9735 40.1226 38.1477 41.9373C35.1307 44.9431 34.9637 45.0879 34.5741 45.0879C34.3403 45.0879 34.0174 45.0211 33.8504 44.932C33.3272 44.6648 30.377 41.581 30.3547 41.2916C30.2879 40.2674 30.7889 39.7664 31.802 39.8332C31.969 39.8443 32.5034 40.2896 33.2827 41.0467L34.5073 42.2379L37.2014 39.5437C39.8621 36.8941 39.9178 36.8496 40.3631 36.8496C40.6971 36.8496 40.9198 36.9275 41.1536 37.1279Z" fill="#1570D0"/>
<path d="M22.5952 45.3551C22.584 48.4166 22.6174 49.2181 22.7287 49.1736C23.753 48.7617 25.0332 48.1494 25.0332 48.0715C25.0332 48.0158 24.8885 47.7597 24.7104 47.5037C23.842 46.2234 23.0182 44.0859 22.7621 42.4383C22.6174 41.5142 22.6063 41.659 22.5952 45.3551Z" fill="#1570D0"/>
</g>
</g>
</g>
</svg>
