<svg width="57" height="57" viewBox="0 0 57 57" fill="none" xmlns="http://www.w3.org/2000/svg">
<g id="forklift 1">
<g id="Vector">
<path d="M4.6292 1.18457C4.42692 1.29004 4.22464 1.49219 4.1191 1.70312C3.94321 2.0459 3.94321 2.19531 3.94321 14.667V27.2793H9.13208V16.4248L9.33435 16.082C9.73011 15.3789 9.4311 15.4141 15.7897 15.4141H21.4358L21.4622 12.5312C21.4974 8.51465 21.172 8.82227 25.4374 8.82227H28.3924V5.46484C28.3924 2.23047 28.3836 2.09863 28.2078 1.72949C28.0846 1.46582 27.9175 1.29004 27.6801 1.17578C27.3547 1.00879 27.1436 1 22.4121 1H17.487V2.64355C17.487 4.55078 17.3991 4.8584 16.7922 5.20117C16.3613 5.44727 15.9743 5.44727 15.5346 5.20117C14.919 4.84961 14.8486 4.60352 14.8486 2.66992V1H9.90601C5.14808 1.00879 4.9458 1.01758 4.6292 1.18457Z" fill="#1570D0"/>
<path d="M24.8042 11.6084C24.6459 11.6875 24.426 11.8721 24.3205 12.0215L24.127 12.2939L24.1006 19.2373C24.0743 27.0859 24.0391 26.6553 24.7426 27.0684L25.112 27.2793L32.1566 27.2617C39.1132 27.2354 39.2011 27.2354 39.4386 27.0508C39.5705 26.9541 39.764 26.7607 39.8607 26.6289C40.0454 26.3916 40.0454 26.3037 40.0718 19.4834C40.0894 12.6016 40.0894 12.5752 39.9047 12.1885C39.7816 11.9248 39.6145 11.749 39.377 11.6348C39.0604 11.4678 38.8493 11.459 36.2197 11.459H33.4054V12.751C33.4054 14.3154 33.2823 14.667 32.6667 14.9658C32.1742 15.2031 31.8751 15.1943 31.4266 14.9307C30.8462 14.5967 30.767 14.3418 30.767 12.7861V11.459H27.9351C25.499 11.459 25.0505 11.4854 24.8042 11.6084Z" fill="#1570D0"/>
<path d="M12.4741 18.2178C12.307 18.3057 12.0783 18.5342 11.9728 18.7188C11.7793 19.0615 11.7705 19.0967 11.7705 22.6562C11.7705 26.1807 11.7705 26.251 11.964 26.585C12.0871 26.8047 12.2894 26.9893 12.518 27.1035C12.861 27.2705 13.0633 27.2793 16.6076 27.2793C20.187 27.2793 20.3453 27.2705 20.7059 27.0947C20.9785 26.9629 21.128 26.8135 21.2599 26.541C21.4358 26.1807 21.4446 26.0225 21.4446 22.6299C21.4446 19.123 21.4446 19.0791 21.2512 18.7363C20.917 18.1562 20.6091 18.0508 19.158 18.0508H17.9268V19.167C17.9268 20.4502 17.83 20.7666 17.3199 21.1006C16.6955 21.5225 15.7809 21.2764 15.4467 20.5996C15.3235 20.3535 15.2884 20.0635 15.2884 19.167V18.0508H14.0307C12.9841 18.0508 12.7291 18.0771 12.4741 18.2178Z" fill="#1570D0"/>
<path d="M2.42173 30.1094C2.21945 30.2324 2.02597 30.4434 1.91164 30.6719C1.74454 31.0147 1.73574 31.1816 1.76213 32.7637C1.78851 34.6357 1.8061 34.7061 2.39535 35.1367C2.6328 35.3213 2.68557 35.3213 13.4151 35.3477C24.171 35.3652 24.1974 35.3652 24.5755 35.1895C24.8482 35.0488 24.9977 34.8994 25.1296 34.627C25.2967 34.293 25.3143 34.0908 25.3143 32.5879C25.3143 31.0322 25.2967 30.9092 25.112 30.584C25.0065 30.3994 24.7778 30.1709 24.6107 30.083C24.3205 29.9248 23.8544 29.916 13.5294 29.916H2.75593L2.42173 30.1094Z" fill="#1570D0"/>
<path d="M28.6739 30.0654C28.5156 30.1445 28.2957 30.3291 28.1902 30.4785C28.0055 30.7334 27.9967 30.8564 27.9703 32.5352C27.9439 34.2402 27.9527 34.3281 28.1374 34.6621C28.2693 34.8906 28.4628 35.0752 28.7003 35.1895C29.0608 35.3652 29.2016 35.3652 35.8503 35.3477C42.5431 35.3213 42.631 35.3213 42.8685 35.1367C43.4577 34.7061 43.4753 34.6357 43.5017 32.7637C43.5281 31.1553 43.5193 31.0234 43.3434 30.6543C43.2115 30.3818 43.0444 30.2061 42.8069 30.0918C42.4903 29.9248 42.2793 29.916 39.7376 29.916H37.0112V31.0498C37.0112 32.0693 36.9936 32.2012 36.809 32.4736C36.2549 33.2998 35.1116 33.2471 34.5927 32.3682C34.452 32.1221 34.408 31.876 34.3816 30.9883L34.3552 29.916H31.6553C29.3599 29.916 28.9201 29.9424 28.6739 30.0654Z" fill="#1570D0"/>
<path d="M0.706765 38.1514C0.0559581 38.4678 -0.190293 39.2852 0.170289 39.9268C0.460514 40.4541 0.900248 40.6387 1.85887 40.6387H2.62401V43.3633H1.82369C0.917837 43.3633 0.530871 43.4951 0.231852 43.9082C-0.225472 44.5498 0.0207794 45.4814 0.733149 45.8242C1.09373 46 1.27842 46 22.5 46C43.7216 46 43.9063 46 44.2669 45.8242C44.9792 45.4814 45.2255 44.5498 44.7682 43.9082C44.4691 43.4951 44.0822 43.3633 43.1763 43.3633H42.376V40.6563L43.2467 40.6211C44.1789 40.5947 44.4076 40.4981 44.7682 40.0147C45.1991 39.4434 44.9616 38.5117 44.302 38.1777C43.9678 38.002 43.6688 38.002 22.4824 38.002C2.87026 38.002 0.970606 38.0195 0.706765 38.1514ZM18.5424 43.3633H10.5392V40.6387H18.5424V43.3633ZM34.4608 43.3633H26.4576V40.6387H34.4608V43.3633Z" fill="#1570D0"/>
</g>
</g>
</svg>
